<svg width="24" height="24" viewBox="0 0 24 24" fill="none" xmlns="http://www.w3.org/2000/svg">
<path d="M11.975 15.8766L15.825 12.0016L11.975 8.12656L10.775 9.32656L12.575 11.1516H8.09998V12.8516H12.575L10.775 14.6766L11.975 15.8766ZM12 22.1516C10.5666 22.1516 9.22914 21.8932 7.98748 21.3766C6.74581 20.8599 5.67081 20.1474 4.76248 19.2391C3.85414 18.3307 3.14164 17.2557 2.62498 16.0141C2.10831 14.7724 1.84998 13.4349 1.84998 12.0016C1.84998 10.5849 2.10831 9.25573 2.62498 8.01406C3.14164 6.7724 3.85414 5.6974 4.76248 4.78906C5.67081 3.88073 6.74581 3.16406 7.98748 2.63906C9.22914 2.11406 10.5666 1.85156 12 1.85156C13.4166 1.85156 14.7458 2.11406 15.9875 2.63906C17.2291 3.16406 18.3041 3.88073 19.2125 4.78906C20.1208 5.6974 20.8375 6.76823 21.3625 8.00156C21.8875 9.2349 22.15 10.5682 22.15 12.0016C22.15 13.4349 21.8875 14.7724 21.3625 16.0141C20.8375 17.2557 20.1208 18.3307 19.2125 19.2391C18.3041 20.1474 17.2291 20.8599 15.9875 21.3766C14.7458 21.8932 13.4166 22.1516 12 22.1516ZM12 20.4516C14.4 20.4516 16.4083 19.6432 18.025 18.0266C19.6416 16.4099 20.45 14.4016 20.45 12.0016C20.45 9.60156 19.6416 7.59323 18.025 5.97656C16.4083 4.3599 14.4 3.55156 12 3.55156C9.59998 3.55156 7.59164 4.3599 5.97498 5.97656C4.35831 7.59323 3.54998 9.60156 3.54998 12.0016C3.54998 14.4016 4.35831 16.4099 5.97498 18.0266C7.59164 19.6432 9.59998 20.4516 12 20.4516Z" fill="white"/>
</svg>
