<svg width="24" height="24" viewBox="0 0 24 24" fill="none" xmlns="http://www.w3.org/2000/svg">
<path d="M8.3 22.2266V20.5016H10.45V18.0016H3.575C3.125 18.0016 2.72917 17.8349 2.3875 17.5016C2.04583 17.1682 1.875 16.7682 1.875 16.3016V4.42656C1.875 3.9599 2.04583 3.5599 2.3875 3.22656C2.72917 2.89323 3.125 2.72656 3.575 2.72656H20.475C20.9417 2.72656 21.3417 2.89323 21.675 3.22656C22.0083 3.5599 22.175 3.9599 22.175 4.42656V16.3016C22.175 16.7682 22.0083 17.1682 21.675 17.5016C21.3417 17.8349 20.9417 18.0016 20.475 18.0016H13.6V20.5016H15.75V22.2266H8.3ZM3.575 16.3016H20.475V4.42656H3.575V16.3016ZM3.575 16.3016V4.42656V16.3016Z" fill="white"/>
</svg>
