<svg width="24" height="24" viewBox="0 0 24 24" fill="none" xmlns="http://www.w3.org/2000/svg">
<path d="M1.92505 20.2008V17.7508H4.07505V5.50078C4.07505 5.03411 4.24588 4.63411 4.58755 4.30078C4.92922 3.96745 5.33338 3.80078 5.80005 3.80078H21.15V5.50078H5.80005V17.7508H11.425V20.2008H1.92505ZM13.875 20.2008C13.5917 20.2008 13.35 20.1008 13.15 19.9008C12.95 19.7008 12.85 19.4258 12.85 19.0758V7.92578C12.85 7.65911 12.95 7.42578 13.15 7.22578C13.35 7.02578 13.5917 6.92578 13.875 6.92578H20.8C21.1667 6.92578 21.4709 7.02578 21.7125 7.22578C21.9542 7.42578 22.0751 7.65911 22.0751 7.92578V19.0758C22.0751 19.4258 21.9501 19.7008 21.7001 19.9008C21.4501 20.1008 21.1584 20.2008 20.8251 20.2008H13.875ZM14.425 17.7508H20.5V8.50078H14.425V17.7508Z" fill="black"/>
</svg>
