<svg width="24" height="24" viewBox="0 0 24 24" fill="none" xmlns="http://www.w3.org/2000/svg">
<path d="M3.54998 12.0016C3.54998 12.9849 3.72498 13.9349 4.07498 14.8516C4.42498 15.7682 4.89998 16.6016 5.49998 17.3516L17.35 5.50156C16.6 4.86823 15.7666 4.3849 14.85 4.05156C13.9333 3.71823 12.9833 3.55156 12 3.55156C9.64998 3.55156 7.65414 4.36823 6.01248 6.00156C4.37081 7.6349 3.54998 9.6349 3.54998 12.0016ZM6.64998 18.5016C7.38331 19.1516 8.21248 19.6391 9.13748 19.9641C10.0625 20.2891 11.0166 20.4516 12 20.4516C14.35 20.4516 16.3458 19.6307 17.9875 17.9891C19.6291 16.3474 20.45 14.3516 20.45 12.0016C20.45 11.0182 20.2833 10.0682 19.95 9.15156C19.6166 8.2349 19.1416 7.40156 18.525 6.65156L6.64998 18.5016ZM1.84998 12.0016C1.84998 10.6016 2.11664 9.28073 2.64998 8.03906C3.18331 6.7974 3.90831 5.7224 4.82498 4.81406C5.74164 3.90573 6.81664 3.1849 8.04998 2.65156C9.28331 2.11823 10.6 1.85156 12 1.85156C13.4 1.85156 14.7166 2.11823 15.95 2.65156C17.1833 3.1849 18.2583 3.90573 19.175 4.81406C20.0916 5.7224 20.8166 6.7974 21.35 8.03906C21.8833 9.28073 22.15 10.6016 22.15 12.0016C22.15 13.4016 21.8833 14.7182 21.35 15.9516C20.8166 17.1849 20.0916 18.2599 19.175 19.1766C18.2583 20.0932 17.1833 20.8182 15.95 21.3516C14.7166 21.8849 13.4 22.1516 12 22.1516C10.6 22.1516 9.28331 21.8849 8.04998 21.3516C6.81664 20.8182 5.74164 20.0932 4.82498 19.1766C3.90831 18.2599 3.18331 17.1849 2.64998 15.9516C2.11664 14.7182 1.84998 13.4016 1.84998 12.0016Z" fill="white"/>
</svg>
