<svg width="150" height="72" viewBox="0 0 150 72" fill="none" xmlns="http://www.w3.org/2000/svg">
<circle cx="28" cy="35.8984" r="4" fill="black" fill-opacity="0.15"/>
<circle cx="44" cy="35.8984" r="4" fill="black" fill-opacity="0.15"/>
<circle cx="60" cy="35.8984" r="4" fill="black"/>
<circle cx="76" cy="35.8984" r="4" fill="black" fill-opacity="0.15"/>
<g opacity="0.4">
<path d="M89.9984 39.9344L89.3984 39.3219L92.3984 36.3219H85.9609V35.4719H92.3984L89.3984 32.4719L89.9984 31.8594L94.0359 35.8969L89.9984 39.9344Z" fill="black"/>
</g>
<path d="M103.908 40.5178C103.294 40.5178 102.749 40.4126 102.271 40.2024C101.797 39.9922 101.422 39.6996 101.146 39.3246C100.871 38.9496 100.724 38.5163 100.707 38.0249H102.31C102.324 38.2607 102.402 38.4666 102.544 38.6428C102.686 38.8161 102.875 38.951 103.111 39.0476C103.347 39.1442 103.611 39.1925 103.903 39.1925C104.216 39.1925 104.493 39.1385 104.734 39.0305C104.976 38.9197 105.165 38.7663 105.301 38.5703C105.438 38.3743 105.504 38.1484 105.501 37.8928C105.504 37.6286 105.436 37.3956 105.297 37.1939C105.158 36.9922 104.956 36.8345 104.692 36.7209C104.43 36.6072 104.115 36.5504 103.746 36.5504H102.974V35.3317H103.746C104.05 35.3317 104.315 35.2791 104.543 35.174C104.773 35.0689 104.953 34.9212 105.084 34.7308C105.214 34.5376 105.278 34.3146 105.276 34.0618C105.278 33.8146 105.223 33.6001 105.109 33.4183C104.999 33.2337 104.841 33.0902 104.636 32.9879C104.435 32.8857 104.197 32.8345 103.925 32.8345C103.658 32.8345 103.411 32.8828 103.183 32.9794C102.956 33.076 102.773 33.2138 102.634 33.3928C102.494 33.5689 102.42 33.7791 102.412 34.0234H100.891C100.902 33.5348 101.043 33.1058 101.312 32.7365C101.585 32.3643 101.949 32.0746 102.403 31.8672C102.858 31.657 103.368 31.5518 103.933 31.5518C104.516 31.5518 105.021 31.6612 105.45 31.88C105.882 32.0959 106.216 32.3871 106.452 32.7536C106.688 33.12 106.805 33.5249 106.805 33.968C106.808 34.4595 106.663 34.8714 106.371 35.2038C106.081 35.5362 105.7 35.7536 105.229 35.8558V35.924C105.842 36.0092 106.313 36.2365 106.639 36.6058C106.969 36.9723 107.132 37.4283 107.129 37.9737C107.129 38.4624 106.99 38.8999 106.712 39.2862C106.436 39.6697 106.055 39.9709 105.57 40.1896C105.087 40.4084 104.533 40.5178 103.908 40.5178ZM112.172 31.2621L109.359 41.7109H108.008L110.821 31.2621H112.172ZM116.689 31.6712V40.3984H115.108V33.2095H115.056L113.015 34.5135V33.0646L115.184 31.6712H116.689ZM118.904 40.3984V39.2564L121.934 36.2862C122.224 35.9936 122.466 35.7337 122.659 35.5064C122.852 35.2791 122.997 35.0589 123.093 34.8459C123.19 34.6328 123.238 34.4055 123.238 34.1641C123.238 33.8885 123.176 33.6527 123.051 33.4567C122.926 33.2578 122.754 33.1044 122.535 32.9964C122.316 32.8885 122.068 32.8345 121.789 32.8345C121.502 32.8345 121.251 32.8942 121.035 33.0135C120.819 33.13 120.652 33.2962 120.532 33.5121C120.416 33.728 120.358 33.9851 120.358 34.2834H118.853C118.853 33.7294 118.98 33.2479 119.233 32.8388C119.485 32.4297 119.833 32.1129 120.277 31.8885C120.723 31.6641 121.234 31.5518 121.811 31.5518C122.396 31.5518 122.91 31.6612 123.353 31.88C123.797 32.0987 124.14 32.3984 124.385 32.7791C124.632 33.1598 124.755 33.5945 124.755 34.0831C124.755 34.4098 124.693 34.7308 124.568 35.0462C124.443 35.3615 124.223 35.7109 123.907 36.0945C123.595 36.478 123.156 36.9425 122.591 37.4879L121.086 39.0178V39.0774H124.887V40.3984H118.904Z" fill="black"/>
</svg>
