<svg width="150" height="72" viewBox="0 0 150 72" fill="none" xmlns="http://www.w3.org/2000/svg">
<rect width="150" height="72" fill="black" fill-opacity="0.05"/>
<rect x="36.5" width="76" height="72" fill="white"/>
<rect x="37" y="0.5" width="75" height="71" stroke="#1A73E8" stroke-opacity="0.2"/>
<path d="M59.6333 44.0987L67.8333 33.1654L74.3333 41.7987H84.8L77.1666 31.6654L73.1666 36.9654L71.7333 35.0654L77.1666 27.832L89.3666 44.0987H59.6333ZM64.0666 41.7987H71.6L67.8333 36.7987L64.0666 41.7987ZM64.0666 41.7987H67.8333H71.6H64.0666Z" fill="#1A73E8"/>
<path d="M16.1569 29.9994L21.1066 34.9491C21.4971 35.3397 21.4971 35.9728 21.1066 36.3634L16.1569 41.3131" stroke="#1A73E8" stroke-width="2"/>
<path d="M131.157 41.3131L126.207 36.3634C125.817 35.9728 125.817 35.3397 126.207 34.9491L131.157 29.9994" stroke="#1A73E8" stroke-width="2"/>
</svg>
