<svg width="308" height="72" viewBox="0 0 308 72" fill="none" xmlns="http://www.w3.org/2000/svg">
<path d="M42.6754 56.9815C42.235 56.9815 41.842 56.8691 41.4964 56.6442C41.1531 56.4169 40.8832 56.0937 40.6867 55.6747C40.4926 55.2533 40.3955 54.7479 40.3955 54.1584C40.3955 53.5689 40.4938 53.0646 40.6903 52.6456C40.8891 52.2266 41.1614 51.9058 41.507 51.6832C41.8527 51.4607 42.2445 51.3494 42.6825 51.3494C43.021 51.3494 43.2933 51.4062 43.4992 51.5199C43.7076 51.6312 43.8685 51.7614 43.9822 51.9105C44.0982 52.0597 44.1881 52.1911 44.2521 52.3047H44.316V49.6023H45.3778V56.875H44.3408V56.0263H44.2521C44.1881 56.1423 44.0958 56.2749 43.9751 56.424C43.8567 56.5732 43.6934 56.7034 43.485 56.8146C43.2767 56.9259 43.0068 56.9815 42.6754 56.9815ZM42.9097 56.076C43.2151 56.076 43.4732 55.9955 43.6839 55.8345C43.897 55.6712 44.0579 55.4451 44.1668 55.1562C44.2781 54.8674 44.3337 54.5312 44.3337 54.1477C44.3337 53.7689 44.2793 53.4375 44.1704 53.1534C44.0615 52.8693 43.9017 52.648 43.691 52.4893C43.4803 52.3307 43.2199 52.2514 42.9097 52.2514C42.5901 52.2514 42.3238 52.3343 42.1107 52.5C41.8977 52.6657 41.7367 52.8918 41.6278 53.1783C41.5212 53.4647 41.468 53.7879 41.468 54.1477C41.468 54.5123 41.5224 54.8402 41.6313 55.1314C41.7402 55.4226 41.9012 55.6534 42.1143 55.8239C42.3297 55.992 42.5949 56.076 42.9097 56.076ZM48.4806 56.9957C48.1349 56.9957 47.8224 56.9318 47.5431 56.804C47.2637 56.6738 47.0424 56.4856 46.879 56.2393C46.718 55.9931 46.6375 55.6913 46.6375 55.3338C46.6375 55.026 46.6967 54.7727 46.8151 54.5739C46.9335 54.375 47.0933 54.2176 47.2945 54.1016C47.4957 53.9856 47.7206 53.898 47.9692 53.8388C48.2178 53.7796 48.4711 53.7346 48.7292 53.7038C49.0559 53.666 49.321 53.6352 49.5246 53.6115C49.7282 53.5855 49.8762 53.544 49.9685 53.4872C50.0608 53.4304 50.107 53.3381 50.107 53.2102V53.1854C50.107 52.8752 50.0194 52.6349 49.8442 52.4645C49.6714 52.294 49.4133 52.2088 49.0701 52.2088C48.7126 52.2088 48.4309 52.2881 48.2249 52.4467C48.0213 52.603 47.8804 52.777 47.8023 52.9688L46.8044 52.7415C46.9228 52.41 47.0956 52.1425 47.3229 51.9389C47.5525 51.733 47.8165 51.5838 48.1148 51.4915C48.4131 51.3968 48.7268 51.3494 49.0559 51.3494C49.2737 51.3494 49.5045 51.3755 49.7483 51.4276C49.9945 51.4773 50.2242 51.5696 50.4373 51.7045C50.6527 51.8395 50.8291 52.0324 50.9664 52.2834C51.1037 52.532 51.1723 52.8551 51.1723 53.2528V56.875H50.1354V56.1293H50.0928C50.0241 56.2666 49.9212 56.4015 49.7838 56.5341C49.6465 56.6667 49.4702 56.7768 49.2547 56.8643C49.0393 56.9519 48.7812 56.9957 48.4806 56.9957ZM48.7114 56.1435C49.005 56.1435 49.2559 56.0855 49.4642 55.9695C49.6749 55.8535 49.8347 55.7019 49.9436 55.5149C50.0549 55.3255 50.1106 55.1231 50.1106 54.9077V54.2045C50.0727 54.2424 49.9993 54.2779 49.8904 54.3111C49.7838 54.3419 49.6619 54.3691 49.5246 54.3928C49.3873 54.4141 49.2535 54.4342 49.1233 54.4531C48.9931 54.4697 48.8842 54.4839 48.7966 54.4957C48.5907 54.5218 48.4025 54.5656 48.232 54.6271C48.0639 54.6887 47.929 54.7775 47.8272 54.8935C47.7277 55.0071 47.678 55.1586 47.678 55.348C47.678 55.6108 47.7751 55.8097 47.9692 55.9446C48.1633 56.0772 48.4107 56.1435 48.7114 56.1435ZM53.0624 58.9205C52.9038 58.9205 52.7594 58.9074 52.6292 58.8814C52.499 58.8577 52.4019 58.8317 52.338 58.8033L52.5937 57.9332C52.7878 57.9853 52.9606 58.0078 53.1121 58.0007C53.2637 57.9936 53.3974 57.9368 53.5134 57.8303C53.6318 57.7237 53.736 57.5497 53.8259 57.3082L53.9573 56.946L51.9616 51.4205H53.0979L54.4793 55.6534H54.5362L55.9175 51.4205H57.0575L54.8096 57.603C54.7054 57.8871 54.5729 58.1274 54.4119 58.3239C54.2509 58.5227 54.0591 58.6719 53.8366 58.7713C53.614 58.8707 53.356 58.9205 53.0624 58.9205ZM62.1427 52.7521L61.1803 52.9226C61.1401 52.7995 61.0762 52.6823 60.9886 52.571C60.9033 52.4598 60.7873 52.3686 60.6406 52.2976C60.4938 52.2266 60.3103 52.1911 60.0901 52.1911C59.7895 52.1911 59.5385 52.2585 59.3373 52.3935C59.1361 52.526 59.0354 52.6977 59.0354 52.9084C59.0354 53.0907 59.1029 53.2375 59.2379 53.3487C59.3728 53.46 59.5906 53.5511 59.8913 53.6222L60.7577 53.821C61.2596 53.937 61.6337 54.1158 61.8799 54.3572C62.1261 54.5987 62.2492 54.9124 62.2492 55.2983C62.2492 55.625 62.1545 55.9162 61.9651 56.1719C61.7781 56.4252 61.5165 56.6241 61.1803 56.7685C60.8465 56.9129 60.4595 56.9851 60.0191 56.9851C59.4083 56.9851 58.91 56.8549 58.5241 56.5945C58.1382 56.3317 57.9014 55.9588 57.8139 55.4759L58.8401 55.3196C58.9041 55.5871 59.0354 55.7895 59.2343 55.9268C59.4332 56.0618 59.6924 56.1293 60.012 56.1293C60.36 56.1293 60.6382 56.0571 60.8465 55.9126C61.0549 55.7659 61.159 55.5871 61.159 55.3764C61.159 55.206 61.0951 55.0627 60.9673 54.9467C60.8418 54.8307 60.6488 54.7431 60.3884 54.6839L59.4651 54.4815C58.9561 54.3655 58.5797 54.1809 58.3359 53.9276C58.0944 53.6742 57.9737 53.3535 57.9737 52.9652C57.9737 52.6432 58.0636 52.3615 58.2435 52.12C58.4235 51.8786 58.672 51.6903 58.9893 51.5554C59.3065 51.4181 59.6699 51.3494 60.0795 51.3494C60.669 51.3494 61.133 51.4773 61.4715 51.733C61.8101 51.9863 62.0338 52.326 62.1427 52.7521Z" fill="black"/>
<path d="M106.005 53.6364V56.875H104.943V49.6023H105.99V52.3082H106.058C106.186 52.0147 106.381 51.7815 106.644 51.6087C106.907 51.4358 107.25 51.3494 107.674 51.3494C108.048 51.3494 108.374 51.4264 108.654 51.5803C108.935 51.7341 109.153 51.9638 109.307 52.2692C109.463 52.5722 109.542 52.951 109.542 53.4055V56.875H108.48V53.5334C108.48 53.1333 108.377 52.8232 108.171 52.603C107.965 52.3804 107.678 52.2692 107.311 52.2692C107.06 52.2692 106.836 52.3224 106.637 52.429C106.44 52.5355 106.285 52.6918 106.171 52.8977C106.06 53.1013 106.005 53.3475 106.005 53.6364ZM113.256 56.9851C112.745 56.9851 112.298 56.8679 111.917 56.6335C111.536 56.3991 111.24 56.0713 111.029 55.6499C110.819 55.2285 110.713 54.736 110.713 54.1726C110.713 53.6068 110.819 53.112 111.029 52.6882C111.24 52.2644 111.536 51.9354 111.917 51.701C112.298 51.4666 112.745 51.3494 113.256 51.3494C113.767 51.3494 114.214 51.4666 114.595 51.701C114.976 51.9354 115.272 52.2644 115.483 52.6882C115.693 53.112 115.799 53.6068 115.799 54.1726C115.799 54.736 115.693 55.2285 115.483 55.6499C115.272 56.0713 114.976 56.3991 114.595 56.6335C114.214 56.8679 113.767 56.9851 113.256 56.9851ZM113.26 56.0938C113.591 56.0938 113.866 56.0062 114.083 55.831C114.301 55.6558 114.462 55.4226 114.566 55.1314C114.673 54.8402 114.726 54.5194 114.726 54.169C114.726 53.821 114.673 53.5014 114.566 53.2102C114.462 52.9167 114.301 52.6811 114.083 52.5036C113.866 52.326 113.591 52.2372 113.26 52.2372C112.926 52.2372 112.649 52.326 112.429 52.5036C112.211 52.6811 112.049 52.9167 111.942 53.2102C111.838 53.5014 111.786 53.821 111.786 54.169C111.786 54.5194 111.838 54.8402 111.942 55.1314C112.049 55.4226 112.211 55.6558 112.429 55.831C112.649 56.0062 112.926 56.0938 113.26 56.0938ZM120.439 54.6129V51.4205H121.504V56.875H120.46V55.9304H120.404C120.278 56.2216 120.077 56.4643 119.8 56.6584C119.525 56.8501 119.183 56.946 118.774 56.946C118.423 56.946 118.113 56.8691 117.843 56.7152C117.576 56.5589 117.365 56.3281 117.211 56.0227C117.06 55.7173 116.984 55.3397 116.984 54.8899V51.4205H118.046V54.7621C118.046 55.1338 118.149 55.4297 118.355 55.6499C118.561 55.87 118.828 55.9801 119.157 55.9801C119.356 55.9801 119.554 55.9304 119.75 55.831C119.949 55.7315 120.114 55.5812 120.244 55.38C120.376 55.1787 120.441 54.9231 120.439 54.6129ZM122.931 56.875V51.4205H123.957V52.2869H124.014C124.114 51.9934 124.289 51.7625 124.54 51.5945C124.793 51.424 125.08 51.3388 125.399 51.3388C125.465 51.3388 125.544 51.3411 125.633 51.3459C125.726 51.3506 125.798 51.3565 125.85 51.3636V52.3793C125.807 52.3674 125.732 52.3544 125.623 52.3402C125.514 52.3236 125.405 52.3153 125.296 52.3153C125.045 52.3153 124.821 52.3686 124.625 52.4751C124.431 52.5793 124.277 52.7249 124.163 52.9119C124.05 53.0966 123.993 53.3073 123.993 53.544V56.875H122.931ZM130.856 52.7521L129.894 52.9226C129.854 52.7995 129.79 52.6823 129.702 52.571C129.617 52.4598 129.501 52.3686 129.354 52.2976C129.207 52.2266 129.024 52.1911 128.804 52.1911C128.503 52.1911 128.252 52.2585 128.051 52.3935C127.85 52.526 127.749 52.6977 127.749 52.9084C127.749 53.0907 127.817 53.2375 127.951 53.3487C128.086 53.46 128.304 53.5511 128.605 53.6222L129.471 53.821C129.973 53.937 130.347 54.1158 130.594 54.3572C130.84 54.5987 130.963 54.9124 130.963 55.2983C130.963 55.625 130.868 55.9162 130.679 56.1719C130.492 56.4252 130.23 56.6241 129.894 56.7685C129.56 56.9129 129.173 56.9851 128.733 56.9851C128.122 56.9851 127.624 56.8549 127.238 56.5945C126.852 56.3317 126.615 55.9588 126.527 55.4759L127.554 55.3196C127.618 55.5871 127.749 55.7895 127.948 55.9268C128.147 56.0618 128.406 56.1293 128.726 56.1293C129.074 56.1293 129.352 56.0571 129.56 55.9126C129.768 55.7659 129.873 55.5871 129.873 55.3764C129.873 55.206 129.809 55.0627 129.681 54.9467C129.555 54.8307 129.362 54.7431 129.102 54.6839L128.179 54.4815C127.67 54.3655 127.293 54.1809 127.049 53.9276C126.808 53.6742 126.687 53.3535 126.687 52.9652C126.687 52.6432 126.777 52.3615 126.957 52.12C127.137 51.8786 127.386 51.6903 127.703 51.5554C128.02 51.4181 128.384 51.3494 128.793 51.3494C129.383 51.3494 129.847 51.4773 130.185 51.733C130.524 51.9863 130.747 52.326 130.856 52.7521Z" fill="black"/>
<path d="M167.029 56.875V51.4205H168.048V52.3082H168.116C168.229 52.0076 168.415 51.7732 168.673 51.6051C168.931 51.4347 169.24 51.3494 169.6 51.3494C169.965 51.3494 170.27 51.4347 170.516 51.6051C170.765 51.7756 170.948 52.0099 171.067 52.3082H171.124C171.254 52.017 171.461 51.785 171.745 51.6122C172.029 51.437 172.368 51.3494 172.761 51.3494C173.256 51.3494 173.659 51.5045 173.972 51.8146C174.287 52.1248 174.444 52.5923 174.444 53.2173V56.875H173.382V53.3168C173.382 52.9474 173.282 52.6799 173.08 52.5142C172.879 52.3485 172.639 52.2656 172.359 52.2656C172.014 52.2656 171.745 52.3722 171.553 52.5852C171.362 52.7959 171.266 53.067 171.266 53.3984V56.875H170.207V53.2493C170.207 52.9534 170.115 52.7154 169.93 52.5355C169.746 52.3556 169.506 52.2656 169.21 52.2656C169.008 52.2656 168.823 52.3189 168.652 52.4254C168.484 52.5296 168.348 52.6752 168.244 52.8622C168.142 53.0492 168.091 53.2659 168.091 53.5121V56.875H167.029ZM175.867 56.875V51.4205H176.929V56.875H175.867ZM176.403 50.5788C176.219 50.5788 176.06 50.5173 175.927 50.3942C175.797 50.2687 175.732 50.1196 175.732 49.9467C175.732 49.7715 175.797 49.6224 175.927 49.4993C176.06 49.3738 176.219 49.3111 176.403 49.3111C176.588 49.3111 176.745 49.3738 176.876 49.4993C177.008 49.6224 177.074 49.7715 177.074 49.9467C177.074 50.1196 177.008 50.2687 176.876 50.3942C176.745 50.5173 176.588 50.5788 176.403 50.5788ZM179.419 53.6364V56.875H178.357V51.4205H179.377V52.3082H179.444C179.569 52.0194 179.766 51.7874 180.033 51.6122C180.303 51.437 180.643 51.3494 181.053 51.3494C181.424 51.3494 181.75 51.4276 182.029 51.5838C182.309 51.7377 182.525 51.9673 182.679 52.2727C182.833 52.5781 182.91 52.9557 182.91 53.4055V56.875H181.848V53.5334C181.848 53.138 181.745 52.8291 181.539 52.6065C181.333 52.3816 181.05 52.2692 180.69 52.2692C180.444 52.2692 180.225 52.3224 180.033 52.429C179.844 52.5355 179.694 52.6918 179.582 52.8977C179.474 53.1013 179.419 53.3475 179.419 53.6364ZM187.789 54.6129V51.4205H188.854V56.875H187.81V55.9304H187.754C187.628 56.2216 187.427 56.4643 187.15 56.6584C186.875 56.8501 186.533 56.946 186.124 56.946C185.773 56.946 185.463 56.8691 185.193 56.7152C184.926 56.5589 184.715 56.3281 184.561 56.0227C184.41 55.7173 184.334 55.3397 184.334 54.8899V51.4205H185.396V54.7621C185.396 55.1338 185.499 55.4297 185.705 55.6499C185.911 55.87 186.178 55.9801 186.507 55.9801C186.706 55.9801 186.904 55.9304 187.1 55.831C187.299 55.7315 187.464 55.5812 187.594 55.38C187.726 55.1787 187.792 54.9231 187.789 54.6129ZM192.827 51.4205V52.2727H189.848V51.4205H192.827ZM190.647 50.1136H191.709V55.2734C191.709 55.4794 191.739 55.6345 191.801 55.7386C191.863 55.8404 191.942 55.9103 192.039 55.9482C192.138 55.9837 192.246 56.0014 192.362 56.0014C192.447 56.0014 192.522 55.9955 192.586 55.9837C192.65 55.9718 192.699 55.9624 192.735 55.9553L192.927 56.8324C192.865 56.8561 192.778 56.8797 192.664 56.9034C192.55 56.9295 192.408 56.9437 192.238 56.946C191.958 56.9508 191.698 56.901 191.457 56.7969C191.215 56.6927 191.02 56.5317 190.871 56.3139C190.722 56.0961 190.647 55.8227 190.647 55.4936V50.1136ZM196.294 56.9851C195.757 56.9851 195.294 56.8703 194.906 56.6406C194.52 56.4086 194.221 56.0831 194.011 55.6641C193.802 55.2427 193.698 54.7491 193.698 54.1832C193.698 53.6245 193.802 53.1321 194.011 52.706C194.221 52.2798 194.515 51.9472 194.891 51.7081C195.27 51.469 195.713 51.3494 196.22 51.3494C196.527 51.3494 196.826 51.4003 197.114 51.5021C197.403 51.6039 197.662 51.7637 197.892 51.9815C198.122 52.1993 198.303 52.4822 198.435 52.8303C198.568 53.1759 198.634 53.5961 198.634 54.0909V54.4673H194.298V53.6719H197.594C197.594 53.3925 197.537 53.1451 197.423 52.9297C197.31 52.7119 197.15 52.5402 196.944 52.4148C196.74 52.2893 196.501 52.2266 196.227 52.2266C195.928 52.2266 195.668 52.3 195.445 52.4467C195.225 52.5911 195.055 52.7805 194.934 53.0149C194.816 53.2469 194.756 53.4991 194.756 53.7713V54.3928C194.756 54.7573 194.82 55.0675 194.948 55.3232C195.078 55.5788 195.26 55.7741 195.492 55.9091C195.724 56.0417 195.995 56.108 196.305 56.108C196.506 56.108 196.689 56.0795 196.855 56.0227C197.021 55.9635 197.164 55.8759 197.285 55.7599C197.406 55.6439 197.498 55.5007 197.562 55.3303L198.567 55.5114C198.486 55.8073 198.342 56.0665 198.134 56.2891C197.928 56.5092 197.668 56.6809 197.356 56.804C197.046 56.9247 196.692 56.9851 196.294 56.9851ZM203.9 52.7521L202.937 52.9226C202.897 52.7995 202.833 52.6823 202.746 52.571C202.66 52.4598 202.544 52.3686 202.398 52.2976C202.251 52.2266 202.067 52.1911 201.847 52.1911C201.547 52.1911 201.296 52.2585 201.094 52.3935C200.893 52.526 200.793 52.6977 200.793 52.9084C200.793 53.0907 200.86 53.2375 200.995 53.3487C201.13 53.46 201.348 53.5511 201.648 53.6222L202.515 53.821C203.017 53.937 203.391 54.1158 203.637 54.3572C203.883 54.5987 204.006 54.9124 204.006 55.2983C204.006 55.625 203.912 55.9162 203.722 56.1719C203.535 56.4252 203.274 56.6241 202.937 56.7685C202.604 56.9129 202.217 56.9851 201.776 56.9851C201.165 56.9851 200.667 56.8549 200.281 56.5945C199.895 56.3317 199.659 55.9588 199.571 55.4759L200.597 55.3196C200.661 55.5871 200.793 55.7895 200.991 55.9268C201.19 56.0618 201.449 56.1293 201.769 56.1293C202.117 56.1293 202.395 56.0571 202.604 55.9126C202.812 55.7659 202.916 55.5871 202.916 55.3764C202.916 55.206 202.852 55.0627 202.724 54.9467C202.599 54.8307 202.406 54.7431 202.146 54.6839L201.222 54.4815C200.713 54.3655 200.337 54.1809 200.093 53.9276C199.851 53.6742 199.731 53.3535 199.731 52.9652C199.731 52.6432 199.821 52.3615 200.001 52.12C200.181 51.8786 200.429 51.6903 200.746 51.5554C201.064 51.4181 201.427 51.3494 201.837 51.3494C202.426 51.3494 202.89 51.4773 203.229 51.733C203.567 51.9863 203.791 52.326 203.9 52.7521Z" fill="black"/>
<path d="M236.585 52.7521L235.623 52.9226C235.583 52.7995 235.519 52.6823 235.431 52.571C235.346 52.4598 235.23 52.3686 235.083 52.2976C234.936 52.2266 234.753 52.1911 234.533 52.1911C234.232 52.1911 233.981 52.2585 233.78 52.3935C233.579 52.526 233.478 52.6977 233.478 52.9084C233.478 53.0907 233.546 53.2375 233.68 53.3487C233.815 53.46 234.033 53.5511 234.334 53.6222L235.2 53.821C235.702 53.937 236.076 54.1158 236.323 54.3572C236.569 54.5987 236.692 54.9124 236.692 55.2983C236.692 55.625 236.597 55.9162 236.408 56.1719C236.221 56.4252 235.959 56.6241 235.623 56.7685C235.289 56.9129 234.902 56.9851 234.462 56.9851C233.851 56.9851 233.353 56.8549 232.967 56.5945C232.581 56.3317 232.344 55.9588 232.256 55.4759L233.283 55.3196C233.347 55.5871 233.478 55.7895 233.677 55.9268C233.876 56.0618 234.135 56.1293 234.455 56.1293C234.803 56.1293 235.081 56.0571 235.289 55.9126C235.497 55.7659 235.602 55.5871 235.602 55.3764C235.602 55.206 235.538 55.0627 235.41 54.9467C235.284 54.8307 235.091 54.7431 234.831 54.6839L233.908 54.4815C233.399 54.3655 233.022 54.1809 232.778 53.9276C232.537 53.6742 232.416 53.3535 232.416 52.9652C232.416 52.6432 232.506 52.3615 232.686 52.12C232.866 51.8786 233.115 51.6903 233.432 51.5554C233.749 51.4181 234.113 51.3494 234.522 51.3494C235.112 51.3494 235.576 51.4773 235.914 51.733C236.253 51.9863 236.476 52.326 236.585 52.7521ZM240.21 56.9851C239.673 56.9851 239.21 56.8703 238.822 56.6406C238.436 56.4086 238.137 56.0831 237.927 55.6641C237.718 55.2427 237.614 54.7491 237.614 54.1832C237.614 53.6245 237.718 53.1321 237.927 52.706C238.137 52.2798 238.431 51.9472 238.807 51.7081C239.186 51.469 239.629 51.3494 240.136 51.3494C240.443 51.3494 240.742 51.4003 241.03 51.5021C241.319 51.6039 241.579 51.7637 241.808 51.9815C242.038 52.1993 242.219 52.4822 242.351 52.8303C242.484 53.1759 242.55 53.5961 242.55 54.0909V54.4673H238.214V53.6719H241.51C241.51 53.3925 241.453 53.1451 241.339 52.9297C241.226 52.7119 241.066 52.5402 240.86 52.4148C240.656 52.2893 240.417 52.2266 240.143 52.2266C239.844 52.2266 239.584 52.3 239.361 52.4467C239.141 52.5911 238.971 52.7805 238.85 53.0149C238.732 53.2469 238.672 53.4991 238.672 53.7713V54.3928C238.672 54.7573 238.736 55.0675 238.864 55.3232C238.994 55.5788 239.176 55.7741 239.408 55.9091C239.64 56.0417 239.911 56.108 240.221 56.108C240.422 56.108 240.605 56.0795 240.771 56.0227C240.937 55.9635 241.08 55.8759 241.201 55.7599C241.322 55.6439 241.414 55.5007 241.478 55.3303L242.483 55.5114C242.402 55.8073 242.258 56.0665 242.05 56.2891C241.844 56.5092 241.584 56.6809 241.272 56.804C240.962 56.9247 240.608 56.9851 240.21 56.9851ZM246.026 56.9851C245.498 56.9851 245.044 56.8655 244.662 56.6264C244.284 56.3849 243.992 56.0523 243.789 55.6286C243.585 55.2048 243.483 54.7195 243.483 54.1726C243.483 53.6186 243.588 53.1297 243.796 52.706C244.004 52.2798 244.298 51.9472 244.677 51.7081C245.055 51.469 245.502 51.3494 246.015 51.3494C246.43 51.3494 246.799 51.4264 247.123 51.5803C247.448 51.7318 247.709 51.9448 247.908 52.2195C248.109 52.4941 248.229 52.8149 248.267 53.1818H247.233C247.177 52.9261 247.046 52.706 246.843 52.5213C246.642 52.3366 246.372 52.2443 246.033 52.2443C245.737 52.2443 245.478 52.3224 245.255 52.4787C245.035 52.6326 244.864 52.8527 244.741 53.1392C244.617 53.4233 244.556 53.7595 244.556 54.1477C244.556 54.5455 244.616 54.8887 244.737 55.1776C244.858 55.4664 245.028 55.6901 245.248 55.8487C245.471 56.0073 245.732 56.0866 246.033 56.0866C246.234 56.0866 246.417 56.05 246.58 55.9766C246.746 55.9008 246.884 55.7931 246.995 55.6534C247.109 55.5137 247.188 55.3456 247.233 55.1491H248.267C248.229 55.5019 248.114 55.8168 247.922 56.0938C247.731 56.3707 247.474 56.5885 247.152 56.7472C246.832 56.9058 246.457 56.9851 246.026 56.9851ZM251.7 56.9851C251.188 56.9851 250.742 56.8679 250.361 56.6335C249.98 56.3991 249.684 56.0713 249.473 55.6499C249.263 55.2285 249.157 54.736 249.157 54.1726C249.157 53.6068 249.263 53.112 249.473 52.6882C249.684 52.2644 249.98 51.9354 250.361 51.701C250.742 51.4666 251.188 51.3494 251.7 51.3494C252.211 51.3494 252.657 51.4666 253.039 51.701C253.42 51.9354 253.716 52.2644 253.926 52.6882C254.137 53.112 254.242 53.6068 254.242 54.1726C254.242 54.736 254.137 55.2285 253.926 55.6499C253.716 56.0713 253.42 56.3991 253.039 56.6335C252.657 56.8679 252.211 56.9851 251.7 56.9851ZM251.703 56.0938C252.035 56.0938 252.309 56.0062 252.527 55.831C252.745 55.6558 252.906 55.4226 253.01 55.1314C253.117 54.8402 253.17 54.5194 253.17 54.169C253.17 53.821 253.117 53.5014 253.01 53.2102C252.906 52.9167 252.745 52.6811 252.527 52.5036C252.309 52.326 252.035 52.2372 251.703 52.2372C251.37 52.2372 251.093 52.326 250.872 52.5036C250.655 52.6811 250.492 52.9167 250.386 53.2102C250.282 53.5014 250.23 53.821 250.23 54.169C250.23 54.5194 250.282 54.8402 250.386 55.1314C250.492 55.4226 250.655 55.6558 250.872 55.831C251.093 56.0062 251.37 56.0938 251.703 56.0938ZM256.489 53.6364V56.875H255.428V51.4205H256.447V52.3082H256.514C256.64 52.0194 256.836 51.7874 257.104 51.6122C257.374 51.437 257.713 51.3494 258.123 51.3494C258.495 51.3494 258.82 51.4276 259.1 51.5838C259.379 51.7377 259.595 51.9673 259.749 52.2727C259.903 52.5781 259.98 52.9557 259.98 53.4055V56.875H258.918V53.5334C258.918 53.138 258.815 52.8291 258.609 52.6065C258.403 52.3816 258.121 52.2692 257.761 52.2692C257.515 52.2692 257.296 52.3224 257.104 52.429C256.914 52.5355 256.764 52.6918 256.653 52.8977C256.544 53.1013 256.489 53.3475 256.489 53.6364ZM263.446 56.9815C263.006 56.9815 262.613 56.8691 262.267 56.6442C261.924 56.4169 261.654 56.0937 261.457 55.6747C261.263 55.2533 261.166 54.7479 261.166 54.1584C261.166 53.5689 261.265 53.0646 261.461 52.6456C261.66 52.2266 261.932 51.9058 262.278 51.6832C262.623 51.4607 263.015 51.3494 263.453 51.3494C263.792 51.3494 264.064 51.4062 264.27 51.5199C264.478 51.6312 264.639 51.7614 264.753 51.9105C264.869 52.0597 264.959 52.1911 265.023 52.3047H265.087V49.6023H266.149V56.875H265.112V56.0263H265.023C264.959 56.1423 264.867 56.2749 264.746 56.424C264.627 56.5732 264.464 56.7034 264.256 56.8146C264.047 56.9259 263.778 56.9815 263.446 56.9815ZM263.68 56.076C263.986 56.076 264.244 55.9955 264.455 55.8345C264.668 55.6712 264.829 55.4451 264.938 55.1562C265.049 54.8674 265.104 54.5312 265.104 54.1477C265.104 53.7689 265.05 53.4375 264.941 53.1534C264.832 52.8693 264.672 52.648 264.462 52.4893C264.251 52.3307 263.991 52.2514 263.68 52.2514C263.361 52.2514 263.095 52.3343 262.881 52.5C262.668 52.6657 262.507 52.8918 262.399 53.1783C262.292 53.4647 262.239 53.7879 262.239 54.1477C262.239 54.5123 262.293 54.8402 262.402 55.1314C262.511 55.4226 262.672 55.6534 262.885 55.8239C263.1 55.992 263.366 56.076 263.68 56.076ZM271.751 52.7521L270.789 52.9226C270.749 52.7995 270.685 52.6823 270.597 52.571C270.512 52.4598 270.396 52.3686 270.249 52.2976C270.102 52.2266 269.919 52.1911 269.699 52.1911C269.398 52.1911 269.147 52.2585 268.946 52.3935C268.745 52.526 268.644 52.6977 268.644 52.9084C268.644 53.0907 268.712 53.2375 268.847 53.3487C268.981 53.46 269.199 53.5511 269.5 53.6222L270.366 53.821C270.868 53.937 271.242 54.1158 271.489 54.3572C271.735 54.5987 271.858 54.9124 271.858 55.2983C271.858 55.625 271.763 55.9162 271.574 56.1719C271.387 56.4252 271.125 56.6241 270.789 56.7685C270.455 56.9129 270.068 56.9851 269.628 56.9851C269.017 56.9851 268.519 56.8549 268.133 56.5945C267.747 56.3317 267.51 55.9588 267.422 55.4759L268.449 55.3196C268.513 55.5871 268.644 55.7895 268.843 55.9268C269.042 56.0618 269.301 56.1293 269.621 56.1293C269.969 56.1293 270.247 56.0571 270.455 55.9126C270.664 55.7659 270.768 55.5871 270.768 55.3764C270.768 55.206 270.704 55.0627 270.576 54.9467C270.45 54.8307 270.257 54.7431 269.997 54.6839L269.074 54.4815C268.565 54.3655 268.188 54.1809 267.945 53.9276C267.703 53.6742 267.582 53.3535 267.582 52.9652C267.582 52.6432 267.672 52.3615 267.852 52.12C268.032 51.8786 268.281 51.6903 268.598 51.5554C268.915 51.4181 269.279 51.3494 269.688 51.3494C270.278 51.3494 270.742 51.4773 271.08 51.733C271.419 51.9863 271.642 52.326 271.751 52.7521Z" fill="black"/>
<path d="M44.6863 19.6328V40H41.6034V22.7157H41.4841L36.6111 25.8981V22.9544L41.6929 19.6328H44.6863ZM57.0777 40.2785C55.6523 40.2785 54.3926 40.0331 53.2986 39.5425C52.2113 39.0519 51.3594 38.3757 50.7428 37.5138C50.1262 36.6519 49.8212 35.6706 49.8279 34.5701C49.8212 33.7082 49.9969 32.9159 50.3549 32.1932C50.7196 31.464 51.2135 30.8573 51.8367 30.3733C52.4599 29.8827 53.1561 29.5711 53.9252 29.4385V29.3192C52.9108 29.0739 52.0986 28.5302 51.4887 27.6882C50.8787 26.8462 50.577 25.8782 50.5837 24.7843C50.577 23.7434 50.8522 22.8152 51.4091 21.9997C51.9726 21.1776 52.745 20.5312 53.7263 20.0605C54.7075 19.5897 55.8246 19.3544 57.0777 19.3544C58.3175 19.3544 59.4247 19.593 60.3993 20.0704C61.3805 20.5411 62.1529 21.1875 62.7165 22.0097C63.28 22.8251 63.5651 23.75 63.5717 24.7843C63.5651 25.8782 63.2535 26.8462 62.6369 27.6882C62.0203 28.5302 61.2181 29.0739 60.2302 29.3192V29.4385C60.9927 29.5711 61.6789 29.8827 62.2888 30.3733C62.9054 30.8573 63.396 31.464 63.7607 32.1932C64.132 32.9159 64.3209 33.7082 64.3275 34.5701C64.3209 35.6706 64.0093 36.6519 63.3927 37.5138C62.7761 38.3757 61.9209 39.0519 60.8269 39.5425C59.7396 40.0331 58.4899 40.2785 57.0777 40.2785ZM57.0777 37.7624C57.9197 37.7624 58.649 37.6232 59.2656 37.3447C59.8822 37.0596 60.3595 36.6651 60.6976 36.1613C61.0358 35.6508 61.2082 35.0541 61.2148 34.3712C61.2082 33.6618 61.0225 33.0352 60.6579 32.4916C60.2998 31.9479 59.8125 31.5203 59.196 31.2087C58.5794 30.8971 57.8733 30.7413 57.0777 30.7413C56.2755 30.7413 55.5628 30.8971 54.9395 31.2087C54.3163 31.5203 53.8257 31.9479 53.4677 32.4916C53.1097 33.0352 52.934 33.6618 52.9406 34.3712C52.934 35.0541 53.0964 35.6508 53.4279 36.1613C53.766 36.6651 54.2467 37.0596 54.8699 37.3447C55.4931 37.6232 56.2291 37.7624 57.0777 37.7624ZM57.0777 28.2849C57.754 28.2849 58.354 28.149 58.8777 27.8772C59.4015 27.6053 59.8125 27.2274 60.1109 26.7434C60.4159 26.2595 60.5717 25.6926 60.5783 25.0429C60.5717 24.4064 60.4192 23.8495 60.1208 23.3721C59.8291 22.8948 59.4214 22.5268 58.8976 22.2682C58.3739 22.003 57.7672 21.8704 57.0777 21.8704C56.3749 21.8704 55.7583 22.003 55.2279 22.2682C54.7042 22.5268 54.2964 22.8948 54.0047 23.3721C53.713 23.8495 53.5705 24.4064 53.5771 25.0429C53.5705 25.6926 53.7163 26.2595 54.0147 26.7434C54.313 27.2274 54.7241 27.6053 55.2478 27.8772C55.7782 28.149 56.3882 28.2849 57.0777 28.2849Z" fill="black"/>
<path d="M112.401 40L121.292 22.4174V22.2682H111.008V19.6328H124.474V22.3577L115.613 40H112.401Z" fill="black"/>
<path d="M175.672 40.2785C174.426 40.2785 173.305 40.0398 172.311 39.5624C171.323 39.0784 170.534 38.4154 169.944 37.5734C169.354 36.7314 169.039 35.7701 168.999 34.6894H171.983C172.056 35.5646 172.443 36.2839 173.146 36.8475C173.849 37.411 174.691 37.6928 175.672 37.6928C176.455 37.6928 177.147 37.5138 177.751 37.1558C178.361 36.7911 178.838 36.2905 179.183 35.6541C179.534 35.0176 179.71 34.2916 179.71 33.4761C179.71 32.6474 179.531 31.9082 179.173 31.2584C178.815 30.6087 178.321 30.0982 177.691 29.7269C177.068 29.3556 176.352 29.1667 175.543 29.16C174.926 29.16 174.306 29.2661 173.683 29.4783C173.06 29.6904 172.556 29.9689 172.172 30.3137L169.357 29.896L170.501 19.6328H181.699V22.2682H173.057L172.41 27.9667H172.53C172.927 27.5821 173.455 27.2606 174.111 27.002C174.774 26.7434 175.483 26.6142 176.239 26.6142C177.479 26.6142 178.583 26.9092 179.551 27.4992C180.525 28.0893 181.291 28.8949 181.848 29.9159C182.412 30.9302 182.69 32.0971 182.683 33.4165C182.69 34.7358 182.392 35.9126 181.788 36.9469C181.192 37.9812 180.363 38.7967 179.302 39.3934C178.248 39.9834 177.038 40.2785 175.672 40.2785ZM193.406 40.2785C192.041 40.2785 190.821 40.0431 189.747 39.5724C188.679 39.1016 187.834 38.4486 187.211 37.6132C186.594 36.7712 186.263 35.7966 186.216 34.6894H189.339C189.379 35.2927 189.581 35.8165 189.946 36.2607C190.317 36.6983 190.801 37.0364 191.398 37.2751C191.994 37.5138 192.657 37.6331 193.387 37.6331C194.189 37.6331 194.898 37.4939 195.515 37.2154C196.138 36.937 196.625 36.5491 196.977 36.0519C197.328 35.548 197.504 34.9679 197.504 34.3115C197.504 33.6286 197.328 33.0286 196.977 32.5115C196.632 31.9877 196.125 31.5767 195.455 31.2783C194.792 30.98 193.99 30.8308 193.048 30.8308H191.328V28.3247H193.048C193.804 28.3247 194.467 28.1888 195.037 27.9169C195.614 27.6451 196.065 27.2672 196.39 26.7832C196.715 26.2926 196.877 25.7191 196.877 25.0627C196.877 24.4329 196.735 23.8859 196.45 23.4218C196.171 22.9511 195.773 22.5831 195.256 22.318C194.746 22.0528 194.142 21.9202 193.446 21.9202C192.783 21.9202 192.163 22.0428 191.587 22.2881C191.016 22.5268 190.552 22.8716 190.194 23.3224C189.836 23.7666 189.644 24.3003 189.617 24.9235H186.644C186.677 23.8229 187.002 22.855 187.619 22.0196C188.242 21.1842 189.064 20.5312 190.085 20.0605C191.106 19.5897 192.24 19.3544 193.486 19.3544C194.792 19.3544 195.919 19.6096 196.867 20.1201C197.822 20.624 198.558 21.2969 199.075 22.1389C199.599 22.9809 199.857 23.9025 199.851 24.9036C199.857 26.044 199.539 27.0119 198.896 27.8075C198.26 28.6031 197.411 29.1368 196.35 29.4087V29.5678C197.703 29.7733 198.75 30.3103 199.493 31.1789C200.242 32.0474 200.613 33.1248 200.607 34.411C200.613 35.5314 200.302 36.5359 199.672 37.4243C199.049 38.3127 198.197 39.0121 197.116 39.5226C196.035 40.0265 194.799 40.2785 193.406 40.2785Z" fill="black"/>
<path d="M251.744 40.2785C250.836 40.2652 249.941 40.0994 249.059 39.7812C248.184 39.463 247.389 38.9326 246.673 38.19C245.957 37.4475 245.383 36.4497 244.952 35.1966C244.528 33.9436 244.316 32.3789 244.316 30.5026C244.316 28.7258 244.491 27.1479 244.843 25.7688C245.201 24.3898 245.715 23.2263 246.384 22.2782C247.054 21.3235 247.863 20.5975 248.811 20.1002C249.759 19.603 250.823 19.3544 252.003 19.3544C253.216 19.3544 254.294 19.593 255.235 20.0704C256.177 20.5478 256.939 21.2074 257.522 22.0494C258.113 22.8914 258.487 23.8495 258.646 24.9235H255.613C255.408 24.0749 255 23.3821 254.39 22.845C253.78 22.308 252.984 22.0395 252.003 22.0395C250.511 22.0395 249.348 22.6892 248.512 23.9887C247.684 25.2882 247.266 27.0948 247.259 29.4087H247.409C247.76 28.8319 248.191 28.3413 248.701 27.9368C249.218 27.5258 249.795 27.2108 250.432 26.9921C251.075 26.7666 251.751 26.6539 252.461 26.6539C253.641 26.6539 254.708 26.9423 255.663 27.5191C256.624 28.0893 257.39 28.8783 257.96 29.886C258.53 30.8938 258.815 32.0474 258.815 33.3469C258.815 34.6463 258.52 35.8231 257.93 36.8773C257.347 37.9315 256.525 38.7668 255.464 39.3834C254.403 39.9934 253.163 40.2917 251.744 40.2785ZM251.735 37.6928C252.517 37.6928 253.216 37.5005 253.833 37.116C254.449 36.7314 254.937 36.2143 255.295 35.5646C255.653 34.9148 255.832 34.1889 255.832 33.3866C255.832 32.6043 255.656 31.8916 255.305 31.2485C254.96 30.6054 254.483 30.0949 253.873 29.717C253.269 29.3391 252.58 29.1501 251.804 29.1501C251.214 29.1501 250.667 29.2628 250.163 29.4882C249.666 29.7136 249.228 30.0253 248.851 30.4231C248.473 30.8208 248.174 31.2783 247.955 31.7955C247.743 32.306 247.637 32.8463 247.637 33.4165C247.637 34.1789 247.813 34.885 248.164 35.5347C248.522 36.1845 249.01 36.7082 249.626 37.106C250.249 37.4972 250.952 37.6928 251.735 37.6928Z" fill="black"/>
</svg>
