<svg width="308" height="72" viewBox="0 0 308 72" fill="none" xmlns="http://www.w3.org/2000/svg">
<path d="M24.8423 31.8182V42H23.3011V33.3594H23.2415L20.8054 34.9503V33.4787L23.3459 31.8182H24.8423ZM31.0369 42.1392C30.3243 42.1392 29.6946 42.0166 29.1477 41.7713C28.6042 41.526 28.1783 41.188 27.87 40.7571C27.5618 40.3262 27.4093 39.8357 27.4126 39.2855C27.4093 38.8546 27.4972 38.4586 27.6761 38.0973C27.8584 37.7327 28.1054 37.4295 28.4169 37.1875C28.7285 36.9422 29.0765 36.7865 29.4609 36.7202V36.6605C28.9538 36.5379 28.5478 36.2661 28.2429 35.8452C27.938 35.4242 27.7872 34.9403 27.7905 34.3935C27.7872 33.8731 27.9247 33.4091 28.2031 33.0014C28.4848 32.5904 28.871 32.2673 29.3615 32.032C29.852 31.7966 30.4105 31.679 31.0369 31.679C31.6567 31.679 32.2102 31.7983 32.6974 32.0369C33.188 32.2723 33.5741 32.5954 33.8558 33.0064C34.1375 33.4141 34.2801 33.8764 34.2834 34.3935C34.2801 34.9403 34.1243 35.4242 33.8161 35.8452C33.5078 36.2661 33.1068 36.5379 32.6129 36.6605V36.7202C32.9941 36.7865 33.3371 36.9422 33.642 37.1875C33.9503 37.4295 34.1955 37.7327 34.3778 38.0973C34.5634 38.4586 34.6579 38.8546 34.6612 39.2855C34.6579 39.8357 34.5021 40.3262 34.1939 40.7571C33.8857 41.188 33.4581 41.526 32.9112 41.7713C32.3677 42.0166 31.7429 42.1392 31.0369 42.1392ZM31.0369 40.8814C31.4579 40.8814 31.8224 40.8118 32.1307 40.6726C32.4389 40.5301 32.6776 40.3329 32.8466 40.081C33.0156 39.8258 33.1018 39.5275 33.1051 39.1861C33.1018 38.8314 33.009 38.5182 32.8267 38.2464C32.6477 37.9747 32.4041 37.7609 32.0959 37.6051C31.7876 37.4493 31.4347 37.3714 31.0369 37.3714C30.6359 37.3714 30.2796 37.4493 29.968 37.6051C29.6565 37.7609 29.4112 37.9747 29.2322 38.2464C29.0533 38.5182 28.9654 38.8314 28.9688 39.1861C28.9654 39.5275 29.0466 39.8258 29.2124 40.081C29.3814 40.3329 29.6217 40.5301 29.9332 40.6726C30.2448 40.8118 30.6127 40.8814 31.0369 40.8814ZM31.0369 36.1435C31.375 36.1435 31.675 36.0755 31.9368 35.9396C32.1986 35.8037 32.4041 35.6148 32.5533 35.3729C32.7057 35.1309 32.7836 34.8475 32.7869 34.5227C32.7836 34.2045 32.7074 33.9261 32.5582 33.6875C32.4124 33.4489 32.2086 33.2649 31.9467 33.1357C31.6849 33.0031 31.3816 32.9368 31.0369 32.9368C30.6856 32.9368 30.3774 33.0031 30.1122 33.1357C29.8504 33.2649 29.6465 33.4489 29.5007 33.6875C29.3549 33.9261 29.2836 34.2045 29.2869 34.5227C29.2836 34.8475 29.3565 35.1309 29.5057 35.3729C29.6548 35.6148 29.8603 35.8037 30.1222 35.9396C30.3873 36.0755 30.6922 36.1435 31.0369 36.1435ZM43.0259 42.1491C42.4094 42.1491 41.8593 41.9917 41.3754 41.6768C40.8948 41.3587 40.5169 40.9062 40.2418 40.3196C39.9701 39.7296 39.8342 39.022 39.8342 38.1967C39.8342 37.3714 39.9717 36.6655 40.2468 36.0788C40.5252 35.4922 40.9064 35.0431 41.3903 34.7315C41.8742 34.42 42.4227 34.2642 43.0359 34.2642C43.5098 34.2642 43.891 34.3438 44.1793 34.5028C44.471 34.6586 44.6964 34.8409 44.8555 35.0497C45.0179 35.2585 45.1438 35.4425 45.2333 35.6016H45.3228V31.8182H46.8093V42H45.3576V40.8118H45.2333C45.1438 40.9742 45.0146 41.1598 44.8455 41.3686C44.6798 41.5774 44.4511 41.7597 44.1594 41.9155C43.8678 42.0713 43.4899 42.1491 43.0259 42.1491ZM43.354 40.8814C43.7816 40.8814 44.1429 40.7687 44.4379 40.5433C44.7362 40.3146 44.9615 39.9981 45.114 39.5938C45.2698 39.1894 45.3477 38.7187 45.3477 38.1818C45.3477 37.6515 45.2714 37.1875 45.119 36.7898C44.9665 36.392 44.7428 36.0821 44.4478 35.8601C44.1528 35.638 43.7882 35.527 43.354 35.527C42.9066 35.527 42.5337 35.643 42.2354 35.875C41.9371 36.107 41.7118 36.4235 41.5593 36.8246C41.4102 37.2256 41.3356 37.678 41.3356 38.1818C41.3356 38.6922 41.4118 39.1513 41.5643 39.5589C41.7167 39.9666 41.9421 40.2898 42.2404 40.5284C42.542 40.7637 42.9132 40.8814 43.354 40.8814ZM51.1532 42.169C50.6693 42.169 50.2318 42.0795 49.8407 41.9006C49.4496 41.7183 49.1397 41.4548 48.911 41.1101C48.6857 40.7654 48.573 40.3428 48.573 39.8423C48.573 39.4115 48.6558 39.0568 48.8216 38.7784C48.9873 38.5 49.211 38.2796 49.4927 38.1172C49.7744 37.9548 50.0893 37.8321 50.4373 37.7493C50.7853 37.6664 51.14 37.6035 51.5012 37.5604C51.9586 37.5073 52.3298 37.4643 52.6149 37.4311C52.8999 37.3946 53.1071 37.3366 53.2363 37.2571C53.3656 37.1776 53.4302 37.0483 53.4302 36.8693V36.8345C53.4302 36.4003 53.3076 36.0639 53.0623 35.8253C52.8204 35.5866 52.4591 35.4673 51.9785 35.4673C51.478 35.4673 51.0836 35.5784 50.7953 35.8004C50.5102 36.0192 50.313 36.2628 50.2037 36.5312L48.8066 36.2131C48.9724 35.7491 49.2143 35.3745 49.5325 35.0895C49.854 34.8011 50.2235 34.5923 50.6412 34.4631C51.0588 34.3305 51.4979 34.2642 51.9586 34.2642C52.2636 34.2642 52.5867 34.3007 52.9281 34.3736C53.2728 34.4432 53.5943 34.5724 53.8926 34.7614C54.1942 34.9503 54.4411 35.2204 54.6333 35.5717C54.8256 35.9197 54.9217 36.3722 54.9217 36.929V42H53.47V40.956H53.4103C53.3142 41.1482 53.17 41.3371 52.9778 41.5227C52.7856 41.7083 52.5386 41.8625 52.237 41.9851C51.9354 42.1077 51.5742 42.169 51.1532 42.169ZM51.4764 40.9759C51.8874 40.9759 52.2387 40.8946 52.5304 40.7322C52.8253 40.5698 53.0491 40.3577 53.2015 40.0959C53.3573 39.8307 53.4352 39.5473 53.4352 39.2457V38.2614C53.3822 38.3144 53.2794 38.3641 53.127 38.4105C52.9778 38.4536 52.8071 38.4917 52.6149 38.5249C52.4226 38.5547 52.2354 38.5829 52.0531 38.6094C51.8708 38.6326 51.7183 38.6525 51.5957 38.669C51.3074 38.7055 51.0439 38.7668 50.8052 38.853C50.5699 38.9392 50.381 39.0634 50.2385 39.2259C50.0993 39.3849 50.0297 39.5971 50.0297 39.8622C50.0297 40.2301 50.1655 40.5085 50.4373 40.6974C50.7091 40.883 51.0555 40.9759 51.4764 40.9759ZM57.5678 44.8636C57.3458 44.8636 57.1436 44.8454 56.9613 44.8089C56.779 44.7758 56.6431 44.7393 56.5536 44.6996L56.9116 43.4815C57.1834 43.5545 57.4253 43.5859 57.6374 43.576C57.8496 43.5661 58.0368 43.4865 58.1992 43.3374C58.3649 43.1882 58.5108 42.9446 58.6367 42.6065L58.8207 42.0994L56.0266 34.3636H57.6175L59.5515 40.2898H59.631L61.565 34.3636H63.1609L60.0138 43.0192C59.868 43.4169 59.6824 43.7533 59.457 44.0284C59.2317 44.3068 58.9632 44.5156 58.6516 44.6548C58.3401 44.794 57.9788 44.8636 57.5678 44.8636ZM70.2802 36.228L68.9329 36.4666C68.8765 36.2943 68.7871 36.1302 68.6644 35.9744C68.5451 35.8187 68.3827 35.6911 68.1772 35.5916C67.9717 35.4922 67.7148 35.4425 67.4066 35.4425C66.9857 35.4425 66.6344 35.5369 66.3526 35.7259C66.0709 35.9115 65.93 36.1518 65.93 36.4467C65.93 36.7019 66.0245 36.9074 66.2134 37.0632C66.4023 37.219 66.7073 37.3466 67.1282 37.446L68.3413 37.7244C69.0439 37.8868 69.5676 38.1371 69.9123 38.4751C70.257 38.8132 70.4293 39.2524 70.4293 39.7926C70.4293 40.25 70.2968 40.6577 70.0316 41.0156C69.7698 41.3703 69.4035 41.6487 68.9329 41.8509C68.4656 42.053 67.9237 42.1541 67.3072 42.1541C66.4521 42.1541 65.7544 41.9718 65.2141 41.6072C64.6739 41.2393 64.3424 40.7173 64.2198 40.0412L65.6566 39.8224C65.7461 40.197 65.93 40.4804 66.2085 40.6726C66.4869 40.8615 66.8498 40.956 67.2972 40.956C67.7844 40.956 68.1739 40.8549 68.4656 40.6527C68.7572 40.4472 68.9031 40.197 68.9031 39.902C68.9031 39.6634 68.8136 39.4628 68.6346 39.3004C68.4589 39.138 68.1888 39.0154 67.8242 38.9325L66.5316 38.6491C65.819 38.4867 65.292 38.2282 64.9506 37.8736C64.6126 37.5189 64.4435 37.0698 64.4435 36.5263C64.4435 36.0755 64.5695 35.6811 64.8214 35.343C65.0733 35.005 65.4213 34.7415 65.8654 34.5526C66.3095 34.3603 66.8183 34.2642 67.3917 34.2642C68.217 34.2642 68.8666 34.4432 69.3406 34.8011C69.8145 35.1558 70.1277 35.6314 70.2802 36.228ZM73.9977 40.608L73.9231 41.1499C73.8734 41.5476 73.7889 41.9619 73.6696 42.3928C73.5536 42.8269 73.4326 43.2296 73.3066 43.6009C73.184 43.9721 73.0829 44.267 73.0034 44.4858H71.9494C71.9925 44.2803 72.0521 44.0019 72.1284 43.6506C72.2046 43.3026 72.2792 42.9131 72.3521 42.4822C72.425 42.0514 72.4797 41.6122 72.5162 41.1648L72.5659 40.608H73.9977ZM79.9611 42L84.4057 33.2102V33.1357H79.2651V31.8182H85.9966V33.1804L81.5669 42H79.9611ZM92.937 37.4659V42H91.4505V31.8182H92.9171V35.6065H93.0115C93.1905 35.1955 93.464 34.8691 93.8319 34.6271C94.1998 34.3852 94.6803 34.2642 95.2736 34.2642C95.7973 34.2642 96.2547 34.3719 96.6458 34.5874C97.0402 34.8028 97.3451 35.1243 97.5605 35.5518C97.7793 35.9761 97.8887 36.5064 97.8887 37.1428V42H96.4022V37.3217C96.4022 36.7616 96.258 36.3274 95.9696 36.0192C95.6813 35.7076 95.2802 35.5518 94.7665 35.5518C94.4152 35.5518 94.1003 35.6264 93.8219 35.7756C93.5468 35.9247 93.3297 36.1435 93.1706 36.4318C93.0149 36.7169 92.937 37.0616 92.937 37.4659ZM103.089 42.1541C102.373 42.1541 101.748 41.9901 101.215 41.6619C100.681 41.3338 100.267 40.8748 99.9718 40.2848C99.6768 39.6948 99.5293 39.0054 99.5293 38.2166C99.5293 37.4245 99.6768 36.7318 99.9718 36.1385C100.267 35.5452 100.681 35.0845 101.215 34.7564C101.748 34.4283 102.373 34.2642 103.089 34.2642C103.805 34.2642 104.43 34.4283 104.963 34.7564C105.497 35.0845 105.911 35.5452 106.206 36.1385C106.501 36.7318 106.649 37.4245 106.649 38.2166C106.649 39.0054 106.501 39.6948 106.206 40.2848C105.911 40.8748 105.497 41.3338 104.963 41.6619C104.43 41.9901 103.805 42.1541 103.089 42.1541ZM103.094 40.9062C103.558 40.9062 103.942 40.7836 104.247 40.5384C104.552 40.2931 104.778 39.9666 104.923 39.5589C105.073 39.1513 105.147 38.7022 105.147 38.2116C105.147 37.7244 105.073 37.277 104.923 36.8693C104.778 36.4583 104.552 36.1286 104.247 35.88C103.942 35.6314 103.558 35.5071 103.094 35.5071C102.627 35.5071 102.239 35.6314 101.931 35.88C101.626 36.1286 101.399 36.4583 101.249 36.8693C101.104 37.277 101.031 37.7244 101.031 38.2116C101.031 38.7022 101.104 39.1513 101.249 39.5589C101.399 39.9666 101.626 40.2931 101.931 40.5384C102.239 40.7836 102.627 40.9062 103.094 40.9062ZM113.145 38.8331V34.3636H114.637V42H113.175V40.6776H113.096C112.92 41.0852 112.638 41.425 112.25 41.6967C111.866 41.9652 111.387 42.0994 110.814 42.0994C110.323 42.0994 109.889 41.9917 109.511 41.7763C109.136 41.5575 108.842 41.2344 108.626 40.8068C108.414 40.3793 108.308 39.8506 108.308 39.2209V34.3636H109.794V39.0419C109.794 39.5623 109.939 39.9766 110.227 40.2848C110.515 40.593 110.89 40.7472 111.35 40.7472C111.629 40.7472 111.906 40.6776 112.181 40.5384C112.459 40.3991 112.69 40.1887 112.872 39.907C113.057 39.6252 113.149 39.2673 113.145 38.8331ZM116.634 42V34.3636H118.071V35.5767H118.15C118.29 35.1657 118.535 34.8426 118.886 34.6072C119.241 34.3686 119.642 34.2493 120.089 34.2493C120.182 34.2493 120.291 34.2526 120.417 34.2592C120.547 34.2659 120.648 34.2741 120.721 34.2841V35.706C120.661 35.6894 120.555 35.6712 120.403 35.6513C120.25 35.6281 120.098 35.6165 119.945 35.6165C119.594 35.6165 119.281 35.6911 119.006 35.8402C118.734 35.986 118.518 36.1899 118.359 36.4517C118.2 36.7102 118.121 37.0052 118.121 37.3366V42H116.634ZM127.729 36.228L126.382 36.4666C126.326 36.2943 126.236 36.1302 126.114 35.9744C125.994 35.8187 125.832 35.6911 125.626 35.5916C125.421 35.4922 125.164 35.4425 124.856 35.4425C124.435 35.4425 124.084 35.5369 123.802 35.7259C123.52 35.9115 123.379 36.1518 123.379 36.4467C123.379 36.7019 123.474 36.9074 123.663 37.0632C123.852 37.219 124.156 37.3466 124.577 37.446L125.79 37.7244C126.493 37.8868 127.017 38.1371 127.362 38.4751C127.706 38.8132 127.879 39.2524 127.879 39.7926C127.879 40.25 127.746 40.6577 127.481 41.0156C127.219 41.3703 126.853 41.6487 126.382 41.8509C125.915 42.053 125.373 42.1541 124.756 42.1541C123.901 42.1541 123.204 41.9718 122.663 41.6072C122.123 41.2393 121.792 40.7173 121.669 40.0412L123.106 39.8224C123.195 40.197 123.379 40.4804 123.658 40.6726C123.936 40.8615 124.299 40.956 124.746 40.956C125.234 40.956 125.623 40.8549 125.915 40.6527C126.206 40.4472 126.352 40.197 126.352 39.902C126.352 39.6634 126.263 39.4628 126.084 39.3004C125.908 39.138 125.638 39.0154 125.273 38.9325L123.981 38.6491C123.268 38.4867 122.741 38.2282 122.4 37.8736C122.062 37.5189 121.893 37.0698 121.893 36.5263C121.893 36.0755 122.019 35.6811 122.271 35.343C122.522 35.005 122.871 34.7415 123.315 34.5526C123.759 34.3603 124.268 34.2642 124.841 34.2642C125.666 34.2642 126.316 34.4432 126.79 34.8011C127.264 35.1558 127.577 35.6314 127.729 36.228ZM131.447 40.608L131.372 41.1499C131.323 41.5476 131.238 41.9619 131.119 42.3928C131.003 42.8269 130.882 43.2296 130.756 43.6009C130.633 43.9721 130.532 44.267 130.453 44.4858H129.399C129.442 44.2803 129.501 44.0019 129.578 43.6506C129.654 43.3026 129.728 42.9131 129.801 42.4822C129.874 42.0514 129.929 41.6122 129.965 41.1648L130.015 40.608H131.447ZM140.428 42.1392C139.805 42.1392 139.245 42.0199 138.748 41.7812C138.254 41.5393 137.859 41.2079 137.564 40.7869C137.269 40.366 137.112 39.8854 137.092 39.3452H138.584C138.62 39.7827 138.814 40.1423 139.165 40.424C139.517 40.7057 139.938 40.8466 140.428 40.8466C140.819 40.8466 141.166 40.7571 141.467 40.5781C141.772 40.3958 142.011 40.1456 142.183 39.8274C142.359 39.5092 142.447 39.1463 142.447 38.7386C142.447 38.3243 142.357 37.9548 142.178 37.63C141.999 37.3052 141.752 37.05 141.437 36.8643C141.126 36.6787 140.768 36.5843 140.363 36.581C140.055 36.581 139.745 36.634 139.434 36.7401C139.122 36.8461 138.87 36.9853 138.678 37.1577L137.271 36.9489L137.843 31.8182H143.441V33.1357H139.121L138.797 35.9844H138.857C139.056 35.7921 139.319 35.6314 139.648 35.5021C139.979 35.3729 140.334 35.3082 140.711 35.3082C141.331 35.3082 141.883 35.4557 142.367 35.7507C142.854 36.0457 143.237 36.4484 143.515 36.9588C143.797 37.4659 143.936 38.0492 143.933 38.7088C143.936 39.3684 143.787 39.9567 143.486 40.4737C143.187 40.9908 142.773 41.3984 142.243 41.6967C141.716 41.9917 141.111 42.1392 140.428 42.1392ZM149.294 42.1392C148.611 42.1392 148.001 42.0215 147.464 41.7862C146.931 41.5509 146.508 41.2244 146.196 40.8068C145.888 40.3859 145.722 39.8987 145.699 39.3452H147.26C147.28 39.6468 147.381 39.9086 147.564 40.1307C147.749 40.3494 147.991 40.5185 148.289 40.6378C148.588 40.7571 148.919 40.8168 149.284 40.8168C149.685 40.8168 150.039 40.7472 150.348 40.608C150.659 40.4687 150.903 40.2749 151.078 40.0263C151.254 39.7744 151.342 39.4844 151.342 39.1562C151.342 38.8149 151.254 38.5149 151.078 38.2564C150.906 37.9946 150.653 37.7891 150.318 37.6399C149.986 37.4908 149.585 37.4162 149.115 37.4162H148.255V36.1634H149.115C149.493 36.1634 149.824 36.0954 150.109 35.9595C150.397 35.8236 150.623 35.6347 150.785 35.3928C150.948 35.1475 151.029 34.8608 151.029 34.5327C151.029 34.2178 150.958 33.9444 150.815 33.7124C150.676 33.477 150.477 33.2931 150.218 33.1605C149.963 33.0279 149.662 32.9616 149.314 32.9616C148.982 32.9616 148.672 33.023 148.384 33.1456C148.099 33.2649 147.867 33.4373 147.688 33.6626C147.509 33.8847 147.413 34.1515 147.4 34.4631H145.913C145.93 33.9129 146.092 33.429 146.4 33.0114C146.712 32.5937 147.123 32.2673 147.633 32.032C148.144 31.7966 148.71 31.679 149.333 31.679C149.986 31.679 150.55 31.8066 151.024 32.0618C151.501 32.3137 151.869 32.6501 152.127 33.071C152.389 33.492 152.519 33.9527 152.515 34.4531C152.519 35.0232 152.359 35.5071 152.038 35.9048C151.72 36.3026 151.296 36.5694 150.765 36.7053V36.7848C151.441 36.8875 151.965 37.156 152.336 37.5902C152.711 38.0244 152.896 38.563 152.893 39.206C152.896 39.7661 152.741 40.2682 152.426 40.7124C152.114 41.1565 151.688 41.5062 151.148 41.7614C150.608 42.0133 149.99 42.1392 149.294 42.1392ZM158.497 42V34.3636H159.924V35.6065H160.019C160.178 35.1856 160.438 34.8575 160.799 34.6222C161.16 34.3835 161.593 34.2642 162.097 34.2642C162.607 34.2642 163.035 34.3835 163.379 34.6222C163.727 34.8608 163.984 35.1889 164.15 35.6065H164.23C164.412 35.1989 164.702 34.8741 165.1 34.6321C165.497 34.3868 165.971 34.2642 166.521 34.2642C167.214 34.2642 167.779 34.4813 168.217 34.9155C168.658 35.3497 168.878 36.0043 168.878 36.8793V42H167.392V37.0185C167.392 36.5014 167.251 36.1269 166.969 35.8949C166.687 35.6629 166.351 35.5469 165.96 35.5469C165.476 35.5469 165.1 35.696 164.831 35.9943C164.563 36.2893 164.428 36.6688 164.428 37.1328V42H162.947V36.924C162.947 36.5097 162.818 36.1766 162.559 35.9247C162.301 35.6728 161.964 35.5469 161.55 35.5469C161.268 35.5469 161.008 35.6214 160.769 35.7706C160.534 35.9164 160.343 36.1203 160.198 36.3821C160.055 36.6439 159.984 36.9472 159.984 37.2919V42H158.497ZM170.87 42V34.3636H172.357V42H170.87ZM171.621 33.1854C171.363 33.1854 171.141 33.0992 170.955 32.9268C170.773 32.7512 170.681 32.5424 170.681 32.3004C170.681 32.0552 170.773 31.8464 170.955 31.674C171.141 31.4983 171.363 31.4105 171.621 31.4105C171.88 31.4105 172.1 31.4983 172.282 31.674C172.468 31.8464 172.561 32.0552 172.561 32.3004C172.561 32.5424 172.468 32.7512 172.282 32.9268C172.1 33.0992 171.88 33.1854 171.621 33.1854ZM175.843 37.4659V42H174.357V34.3636H175.784V35.6065H175.878C176.054 35.2022 176.329 34.8774 176.703 34.6321C177.081 34.3868 177.557 34.2642 178.13 34.2642C178.651 34.2642 179.106 34.3736 179.497 34.5923C179.888 34.8078 180.192 35.1293 180.407 35.5568C180.623 35.9844 180.73 36.513 180.73 37.1428V42H179.244V37.3217C179.244 36.7682 179.1 36.3357 178.811 36.0241C178.523 35.7093 178.127 35.5518 177.623 35.5518C177.278 35.5518 176.972 35.6264 176.703 35.7756C176.438 35.9247 176.228 36.1435 176.072 36.4318C175.919 36.7169 175.843 37.0616 175.843 37.4659ZM187.561 38.8331V34.3636H189.053V42H187.591V40.6776H187.512C187.336 41.0852 187.054 41.425 186.666 41.6967C186.282 41.9652 185.803 42.0994 185.23 42.0994C184.739 42.0994 184.305 41.9917 183.927 41.7763C183.552 41.5575 183.258 41.2344 183.042 40.8068C182.83 40.3793 182.724 39.8506 182.724 39.2209V34.3636H184.21V39.0419C184.21 39.5623 184.355 39.9766 184.643 40.2848C184.931 40.593 185.306 40.7472 185.767 40.7472C186.045 40.7472 186.322 40.6776 186.597 40.5384C186.875 40.3991 187.106 40.1887 187.288 39.907C187.473 39.6252 187.565 39.2673 187.561 38.8331ZM194.615 34.3636V35.5568H190.444V34.3636H194.615ZM191.562 32.5341H193.049V39.7578C193.049 40.0462 193.092 40.2633 193.178 40.4091C193.264 40.5516 193.375 40.6494 193.511 40.7024C193.65 40.7521 193.801 40.777 193.963 40.777C194.083 40.777 194.187 40.7687 194.277 40.7521C194.366 40.7356 194.436 40.7223 194.485 40.7124L194.754 41.9403C194.668 41.9735 194.545 42.0066 194.386 42.0398C194.227 42.0762 194.028 42.0961 193.789 42.0994C193.398 42.1061 193.034 42.0365 192.696 41.8906C192.358 41.7448 192.084 41.5194 191.875 41.2145C191.667 40.9096 191.562 40.5268 191.562 40.0661V32.5341ZM199.468 42.1541C198.716 42.1541 198.068 41.9934 197.524 41.6719C196.984 41.3471 196.566 40.8913 196.271 40.3047C195.98 39.7147 195.834 39.0237 195.834 38.2315C195.834 37.4493 195.98 36.7599 196.271 36.1634C196.566 35.5668 196.977 35.1011 197.504 34.7663C198.035 34.4316 198.655 34.2642 199.364 34.2642C199.795 34.2642 200.212 34.3355 200.617 34.478C201.021 34.6205 201.384 34.8442 201.705 35.1491C202.027 35.4541 202.28 35.8501 202.466 36.3374C202.652 36.8213 202.744 37.4096 202.744 38.1023V38.6293H196.674V37.5156H201.288C201.288 37.1245 201.208 36.7782 201.049 36.4766C200.89 36.1716 200.666 35.9313 200.378 35.7557C200.093 35.58 199.758 35.4922 199.374 35.4922C198.956 35.4922 198.592 35.5949 198.28 35.8004C197.972 36.0026 197.733 36.2678 197.564 36.5959C197.398 36.9207 197.316 37.2737 197.316 37.6548V38.5249C197.316 39.0353 197.405 39.4695 197.584 39.8274C197.766 40.1854 198.02 40.4588 198.345 40.6477C198.669 40.8333 199.049 40.9261 199.483 40.9261C199.765 40.9261 200.022 40.8864 200.254 40.8068C200.486 40.724 200.686 40.6013 200.855 40.4389C201.024 40.2765 201.154 40.076 201.243 39.8374L202.65 40.0909C202.537 40.5052 202.335 40.8681 202.044 41.1797C201.755 41.4879 201.392 41.7282 200.955 41.9006C200.521 42.0696 200.025 42.1541 199.468 42.1541ZM210.116 36.228L208.769 36.4666C208.712 36.2943 208.623 36.1302 208.5 35.9744C208.381 35.8187 208.219 35.6911 208.013 35.5916C207.808 35.4922 207.551 35.4425 207.243 35.4425C206.822 35.4425 206.47 35.5369 206.189 35.7259C205.907 35.9115 205.766 36.1518 205.766 36.4467C205.766 36.7019 205.86 36.9074 206.049 37.0632C206.238 37.219 206.543 37.3466 206.964 37.446L208.177 37.7244C208.88 37.8868 209.404 38.1371 209.748 38.4751C210.093 38.8132 210.265 39.2524 210.265 39.7926C210.265 40.25 210.133 40.6577 209.868 41.0156C209.606 41.3703 209.239 41.6487 208.769 41.8509C208.301 42.053 207.76 42.1541 207.143 42.1541C206.288 42.1541 205.59 41.9718 205.05 41.6072C204.51 41.2393 204.178 40.7173 204.056 40.0412L205.493 39.8224C205.582 40.197 205.766 40.4804 206.044 40.6726C206.323 40.8615 206.686 40.956 207.133 40.956C207.62 40.956 208.01 40.8549 208.301 40.6527C208.593 40.4472 208.739 40.197 208.739 39.902C208.739 39.6634 208.65 39.4628 208.471 39.3004C208.295 39.138 208.025 39.0154 207.66 38.9325L206.368 38.6491C205.655 38.4867 205.128 38.2282 204.787 37.8736C204.449 37.5189 204.279 37.0698 204.279 36.5263C204.279 36.0755 204.405 35.6811 204.657 35.343C204.909 35.005 205.257 34.7415 205.701 34.5526C206.145 34.3603 206.654 34.2642 207.228 34.2642C208.053 34.2642 208.703 34.4432 209.176 34.8011C209.65 35.1558 209.964 35.6314 210.116 36.228ZM213.834 40.608L213.759 41.1499C213.709 41.5476 213.625 41.9619 213.506 42.3928C213.39 42.8269 213.269 43.2296 213.143 43.6009C213.02 43.9721 212.919 44.267 212.839 44.4858H211.785C211.828 44.2803 211.888 44.0019 211.964 43.6506C212.041 43.3026 212.115 42.9131 212.188 42.4822C212.261 42.0514 212.316 41.6122 212.352 41.1648L212.402 40.608H213.834ZM223.009 42.1392C222.555 42.1326 222.107 42.0497 221.666 41.8906C221.229 41.7315 220.831 41.4664 220.473 41.0952C220.115 40.724 219.829 40.2251 219.613 39.5987C219.401 38.9723 219.295 38.1901 219.295 37.2521C219.295 36.3639 219.383 35.575 219.558 34.8857C219.737 34.1963 219.994 33.6146 220.329 33.1406C220.664 32.6634 221.068 32.3004 221.542 32.0518C222.016 31.8033 222.548 31.679 223.138 31.679C223.744 31.679 224.283 31.7983 224.754 32.0369C225.224 32.2756 225.606 32.6054 225.897 33.0263C226.192 33.4472 226.379 33.9261 226.459 34.4631H224.943C224.84 34.0388 224.636 33.6925 224.331 33.424C224.026 33.1555 223.628 33.0213 223.138 33.0213C222.392 33.0213 221.811 33.3461 221.393 33.9957C220.979 34.6454 220.77 35.5485 220.767 36.7053H220.841C221.017 36.4169 221.232 36.1716 221.487 35.9695C221.746 35.764 222.034 35.6065 222.352 35.4972C222.674 35.3845 223.012 35.3281 223.367 35.3281C223.957 35.3281 224.49 35.4723 224.968 35.7607C225.448 36.0457 225.831 36.4401 226.116 36.9439C226.401 37.4477 226.544 38.0244 226.544 38.674C226.544 39.3236 226.396 39.9119 226.101 40.4389C225.809 40.9659 225.398 41.3835 224.868 41.6918C224.338 41.9967 223.718 42.1458 223.009 42.1392ZM223.004 40.8466C223.395 40.8466 223.744 40.7505 224.053 40.5582C224.361 40.366 224.605 40.1075 224.784 39.7827C224.963 39.4579 225.052 39.0949 225.052 38.6939C225.052 38.3028 224.964 37.9465 224.789 37.625C224.616 37.3035 224.378 37.0483 224.073 36.8594C223.771 36.6705 223.426 36.576 223.039 36.576C222.744 36.576 222.47 36.6323 222.218 36.745C221.97 36.8577 221.751 37.0135 221.562 37.2124C221.373 37.4112 221.224 37.6399 221.115 37.8984C221.008 38.1536 220.955 38.4238 220.955 38.7088C220.955 39.09 221.043 39.4429 221.219 39.7678C221.398 40.0926 221.642 40.3544 221.95 40.5533C222.261 40.7488 222.613 40.8466 223.004 40.8466ZM237.802 36.228L236.454 36.4666C236.398 36.2943 236.309 36.1302 236.186 35.9744C236.067 35.8187 235.904 35.6911 235.699 35.5916C235.493 35.4922 235.236 35.4425 234.928 35.4425C234.507 35.4425 234.156 35.5369 233.874 35.7259C233.592 35.9115 233.452 36.1518 233.452 36.4467C233.452 36.7019 233.546 36.9074 233.735 37.0632C233.924 37.219 234.229 37.3466 234.65 37.446L235.863 37.7244C236.565 37.8868 237.089 38.1371 237.434 38.4751C237.778 38.8132 237.951 39.2524 237.951 39.7926C237.951 40.25 237.818 40.6577 237.553 41.0156C237.291 41.3703 236.925 41.6487 236.454 41.8509C235.987 42.053 235.445 42.1541 234.829 42.1541C233.974 42.1541 233.276 41.9718 232.736 41.6072C232.195 41.2393 231.864 40.7173 231.741 40.0412L233.178 39.8224C233.268 40.197 233.452 40.4804 233.73 40.6726C234.008 40.8615 234.371 40.956 234.819 40.956C235.306 40.956 235.695 40.8549 235.987 40.6527C236.279 40.4472 236.425 40.197 236.425 39.902C236.425 39.6634 236.335 39.4628 236.156 39.3004C235.98 39.138 235.71 39.0154 235.346 38.9325L234.053 38.6491C233.34 38.4867 232.814 38.2282 232.472 37.8736C232.134 37.5189 231.965 37.0698 231.965 36.5263C231.965 36.0755 232.091 35.6811 232.343 35.343C232.595 35.005 232.943 34.7415 233.387 34.5526C233.831 34.3603 234.34 34.2642 234.913 34.2642C235.738 34.2642 236.388 34.4432 236.862 34.8011C237.336 35.1558 237.649 35.6314 237.802 36.228ZM242.876 42.1541C242.124 42.1541 241.476 41.9934 240.933 41.6719C240.392 41.3471 239.975 40.8913 239.68 40.3047C239.388 39.7147 239.242 39.0237 239.242 38.2315C239.242 37.4493 239.388 36.7599 239.68 36.1634C239.975 35.5668 240.386 35.1011 240.913 34.7663C241.443 34.4316 242.063 34.2642 242.772 34.2642C243.203 34.2642 243.621 34.3355 244.025 34.478C244.429 34.6205 244.792 34.8442 245.114 35.1491C245.435 35.4541 245.689 35.8501 245.874 36.3374C246.06 36.8213 246.153 37.4096 246.153 38.1023V38.6293H240.082V37.5156H244.696C244.696 37.1245 244.616 36.7782 244.457 36.4766C244.298 36.1716 244.075 35.9313 243.786 35.7557C243.501 35.58 243.166 35.4922 242.782 35.4922C242.364 35.4922 242 35.5949 241.688 35.8004C241.38 36.0026 241.141 36.2678 240.972 36.5959C240.807 36.9207 240.724 37.2737 240.724 37.6548V38.5249C240.724 39.0353 240.813 39.4695 240.992 39.8274C241.174 40.1854 241.428 40.4588 241.753 40.6477C242.078 40.8333 242.457 40.9261 242.891 40.9261C243.173 40.9261 243.43 40.8864 243.662 40.8068C243.894 40.724 244.094 40.6013 244.263 40.4389C244.433 40.2765 244.562 40.076 244.651 39.8374L246.058 40.0909C245.946 40.5052 245.743 40.8681 245.452 41.1797C245.163 41.4879 244.8 41.7282 244.363 41.9006C243.929 42.0696 243.433 42.1541 242.876 42.1541ZM251.019 42.1541C250.28 42.1541 249.643 41.9867 249.11 41.652C248.579 41.3139 248.172 40.8482 247.887 40.255C247.602 39.6617 247.459 38.9822 247.459 38.2166C247.459 37.4411 247.605 36.7566 247.896 36.1634C248.188 35.5668 248.599 35.1011 249.129 34.7663C249.66 34.4316 250.285 34.2642 251.004 34.2642C251.584 34.2642 252.101 34.3719 252.555 34.5874C253.009 34.7995 253.375 35.0978 253.654 35.4822C253.935 35.8667 254.103 36.3158 254.156 36.8295H252.709C252.629 36.4716 252.447 36.1634 252.162 35.9048C251.88 35.6463 251.503 35.517 251.029 35.517C250.614 35.517 250.251 35.6264 249.94 35.8452C249.632 36.0606 249.391 36.3688 249.219 36.7699C249.047 37.1676 248.96 37.6383 248.96 38.1818C248.96 38.7386 249.045 39.2192 249.214 39.6236C249.383 40.0279 249.622 40.3411 249.93 40.5632C250.241 40.7853 250.608 40.8963 251.029 40.8963C251.31 40.8963 251.566 40.8449 251.794 40.7422C252.026 40.6361 252.22 40.4853 252.376 40.2898C252.535 40.0942 252.646 39.8589 252.709 39.5838H254.156C254.103 40.0777 253.942 40.5185 253.673 40.9062C253.405 41.294 253.045 41.599 252.595 41.821C252.147 42.0431 251.622 42.1541 251.019 42.1541ZM258.962 42.1541C258.246 42.1541 257.621 41.9901 257.088 41.6619C256.554 41.3338 256.14 40.8748 255.845 40.2848C255.55 39.6948 255.402 39.0054 255.402 38.2166C255.402 37.4245 255.55 36.7318 255.845 36.1385C256.14 35.5452 256.554 35.0845 257.088 34.7564C257.621 34.4283 258.246 34.2642 258.962 34.2642C259.678 34.2642 260.303 34.4283 260.836 34.7564C261.37 35.0845 261.784 35.5452 262.079 36.1385C262.374 36.7318 262.522 37.4245 262.522 38.2166C262.522 39.0054 262.374 39.6948 262.079 40.2848C261.784 40.8748 261.37 41.3338 260.836 41.6619C260.303 41.9901 259.678 42.1541 258.962 42.1541ZM258.967 40.9062C259.431 40.9062 259.815 40.7836 260.12 40.5384C260.425 40.2931 260.651 39.9666 260.797 39.5589C260.946 39.1513 261.02 38.7022 261.02 38.2116C261.02 37.7244 260.946 37.277 260.797 36.8693C260.651 36.4583 260.425 36.1286 260.12 35.88C259.815 35.6314 259.431 35.5071 258.967 35.5071C258.5 35.5071 258.112 35.6314 257.804 35.88C257.499 36.1286 257.272 36.4583 257.123 36.8693C256.977 37.277 256.904 37.7244 256.904 38.2116C256.904 38.7022 256.977 39.1513 257.123 39.5589C257.272 39.9666 257.499 40.2931 257.804 40.5384C258.112 40.7836 258.5 40.9062 258.967 40.9062ZM265.667 37.4659V42H264.181V34.3636H265.608V35.6065H265.702C265.878 35.2022 266.153 34.8774 266.528 34.6321C266.905 34.3868 267.381 34.2642 267.954 34.2642C268.475 34.2642 268.93 34.3736 269.322 34.5923C269.713 34.8078 270.016 35.1293 270.231 35.5568C270.447 35.9844 270.555 36.513 270.555 37.1428V42H269.068V37.3217C269.068 36.7682 268.924 36.3357 268.635 36.0241C268.347 35.7093 267.951 35.5518 267.447 35.5518C267.103 35.5518 266.796 35.6264 266.528 35.7756C266.262 35.9247 266.052 36.1435 265.896 36.4318C265.744 36.7169 265.667 37.0616 265.667 37.4659ZM275.407 42.1491C274.79 42.1491 274.24 41.9917 273.756 41.6768C273.276 41.3587 272.898 40.9062 272.623 40.3196C272.351 39.7296 272.215 39.022 272.215 38.1967C272.215 37.3714 272.353 36.6655 272.628 36.0788C272.906 35.4922 273.287 35.0431 273.771 34.7315C274.255 34.42 274.804 34.2642 275.417 34.2642C275.891 34.2642 276.272 34.3438 276.56 34.5028C276.852 34.6586 277.077 34.8409 277.236 35.0497C277.399 35.2585 277.525 35.4425 277.614 35.6016H277.704V31.8182H279.19V42H277.738V40.8118H277.614C277.525 40.9742 277.395 41.1598 277.226 41.3686C277.061 41.5774 276.832 41.7597 276.54 41.9155C276.249 42.0713 275.871 42.1491 275.407 42.1491ZM275.735 40.8814C276.162 40.8814 276.524 40.7687 276.819 40.5433C277.117 40.3146 277.342 39.9981 277.495 39.5938C277.651 39.1894 277.729 38.7187 277.729 38.1818C277.729 37.6515 277.652 37.1875 277.5 36.7898C277.347 36.392 277.124 36.0821 276.829 35.8601C276.534 35.638 276.169 35.527 275.735 35.527C275.287 35.527 274.915 35.643 274.616 35.875C274.318 36.107 274.093 36.4235 273.94 36.8246C273.791 37.2256 273.716 37.678 273.716 38.1818C273.716 38.6922 273.793 39.1513 273.945 39.5589C274.098 39.9666 274.323 40.2898 274.621 40.5284C274.923 40.7637 275.294 40.8814 275.735 40.8814ZM287.034 36.228L285.687 36.4666C285.63 36.2943 285.541 36.1302 285.418 35.9744C285.299 35.8187 285.137 35.6911 284.931 35.5916C284.726 35.4922 284.469 35.4425 284.161 35.4425C283.74 35.4425 283.388 35.5369 283.107 35.7259C282.825 35.9115 282.684 36.1518 282.684 36.4467C282.684 36.7019 282.778 36.9074 282.967 37.0632C283.156 37.219 283.461 37.3466 283.882 37.446L285.095 37.7244C285.798 37.8868 286.321 38.1371 286.666 38.4751C287.011 38.8132 287.183 39.2524 287.183 39.7926C287.183 40.25 287.051 40.6577 286.786 41.0156C286.524 41.3703 286.157 41.6487 285.687 41.8509C285.219 42.053 284.678 42.1541 284.061 42.1541C283.206 42.1541 282.508 41.9718 281.968 41.6072C281.428 41.2393 281.096 40.7173 280.974 40.0412L282.411 39.8224C282.5 40.197 282.684 40.4804 282.962 40.6726C283.241 40.8615 283.604 40.956 284.051 40.956C284.538 40.956 284.928 40.8549 285.219 40.6527C285.511 40.4472 285.657 40.197 285.657 39.902C285.657 39.6634 285.567 39.4628 285.388 39.3004C285.213 39.138 284.943 39.0154 284.578 38.9325L283.286 38.6491C282.573 38.4867 282.046 38.2282 281.705 37.8736C281.366 37.5189 281.197 37.0698 281.197 36.5263C281.197 36.0755 281.323 35.6811 281.575 35.343C281.827 35.005 282.175 34.7415 282.619 34.5526C283.063 34.3603 283.572 34.2642 284.146 34.2642C284.971 34.2642 285.621 34.4432 286.094 34.8011C286.568 35.1558 286.882 35.6314 287.034 36.228Z" fill="black"/>
</svg>
