<svg width="152" height="72" viewBox="0 0 152 72" fill="none" xmlns="http://www.w3.org/2000/svg">
<path d="M67.5516 36.0016C67.5516 36.9849 67.7266 37.9349 68.0766 38.8516C68.4266 39.7682 68.9016 40.6016 69.5016 41.3516L81.3516 29.5016C80.6016 28.8682 79.7682 28.3849 78.8516 28.0516C77.9349 27.7182 76.9849 27.5516 76.0016 27.5516C73.6516 27.5516 71.6557 28.3682 70.0141 30.0016C68.3724 31.6349 67.5516 33.6349 67.5516 36.0016ZM70.6516 42.5016C71.3849 43.1516 72.2141 43.6391 73.1391 43.9641C74.0641 44.2891 75.0182 44.4516 76.0016 44.4516C78.3516 44.4516 80.3474 43.6307 81.9891 41.9891C83.6307 40.3474 84.4516 38.3516 84.4516 36.0016C84.4516 35.0182 84.2849 34.0682 83.9516 33.1516C83.6182 32.2349 83.1432 31.4016 82.5266 30.6516L70.6516 42.5016ZM65.8516 36.0016C65.8516 34.6016 66.1182 33.2807 66.6516 32.0391C67.1849 30.7974 67.9099 29.7224 68.8266 28.8141C69.7432 27.9057 70.8182 27.1849 72.0516 26.6516C73.2849 26.1182 74.6016 25.8516 76.0016 25.8516C77.4016 25.8516 78.7182 26.1182 79.9516 26.6516C81.1849 27.1849 82.2599 27.9057 83.1766 28.8141C84.0932 29.7224 84.8182 30.7974 85.3516 32.0391C85.8849 33.2807 86.1516 34.6016 86.1516 36.0016C86.1516 37.4016 85.8849 38.7182 85.3516 39.9516C84.8182 41.1849 84.0932 42.2599 83.1766 43.1766C82.2599 44.0932 81.1849 44.8182 79.9516 45.3516C78.7182 45.8849 77.4016 46.1516 76.0016 46.1516C74.6016 46.1516 73.2849 45.8849 72.0516 45.3516C70.8182 44.8182 69.7432 44.0932 68.8266 43.1766C67.9099 42.2599 67.1849 41.1849 66.6516 39.9516C66.1182 38.7182 65.8516 37.4016 65.8516 36.0016Z" fill="black"/>
</svg>
