<svg width="150" height="72" viewBox="0 0 150 72" fill="none" xmlns="http://www.w3.org/2000/svg">
<path d="M57.9326 45V43.25L63.3467 37.6406C63.9248 37.0312 64.4014 36.4974 64.7764 36.0391C65.1566 35.5755 65.4404 35.1354 65.6279 34.7187C65.8154 34.3021 65.9092 33.8594 65.9092 33.3906C65.9092 32.8594 65.7842 32.401 65.5342 32.0156C65.2842 31.625 64.943 31.3255 64.5107 31.1172C64.0785 30.9036 63.5915 30.7969 63.0498 30.7969C62.4769 30.7969 61.9769 30.9141 61.5498 31.1484C61.1227 31.3828 60.7946 31.7135 60.5654 32.1406C60.3363 32.5677 60.2217 33.0677 60.2217 33.6406H57.917C57.917 32.6667 58.141 31.8151 58.5889 31.0859C59.0368 30.3568 59.6514 29.7917 60.4326 29.3906C61.2139 28.9844 62.1019 28.7812 63.0967 28.7812C64.1019 28.7812 64.9873 28.9818 65.7529 29.3828C66.5238 29.7786 67.1253 30.3203 67.5576 31.0078C67.9899 31.6901 68.2061 32.4609 68.2061 33.3203C68.2061 33.9141 68.0941 34.4948 67.8701 35.0625C67.6514 35.6302 67.2686 36.263 66.7217 36.9609C66.1748 37.6536 65.4144 38.4948 64.4404 39.4844L61.2607 42.8125V42.9297H68.4639V45H57.9326ZM77.5498 28.25L72.3936 47.4062H70.3076L75.4639 28.25H77.5498ZM84.7842 45.2187C83.805 45.2187 82.9248 45.0312 82.1436 44.6562C81.3675 44.276 80.7477 43.7552 80.2842 43.0938C79.8206 42.4323 79.5732 41.6771 79.542 40.8281H81.8857C81.943 41.5156 82.2477 42.0807 82.7998 42.5234C83.3519 42.9661 84.0133 43.1875 84.7842 43.1875C85.3988 43.1875 85.943 43.0469 86.417 42.7656C86.8962 42.4792 87.2712 42.0859 87.542 41.5859C87.818 41.0859 87.9561 40.5156 87.9561 39.875C87.9561 39.224 87.8154 38.6432 87.5342 38.1328C87.2529 37.6224 86.8649 37.2214 86.3701 36.9297C85.8805 36.638 85.318 36.4896 84.6826 36.4844C84.1982 36.4844 83.7113 36.5677 83.2217 36.7344C82.7321 36.901 82.3363 37.1198 82.0342 37.3906L79.8232 37.0625L80.7217 29H89.5186V31.0703H82.7295L82.2217 35.5469H82.3154C82.6279 35.2448 83.042 34.9922 83.5576 34.7891C84.0785 34.5859 84.6357 34.4844 85.2295 34.4844C86.2035 34.4844 87.0706 34.7161 87.8311 35.1797C88.5967 35.6432 89.1982 36.276 89.6357 37.0781C90.0785 37.875 90.2972 38.7917 90.292 39.8281C90.2972 40.8646 90.0628 41.7891 89.5889 42.6016C89.1201 43.4141 88.4691 44.0547 87.6357 44.5234C86.8076 44.987 85.8571 45.2187 84.7842 45.2187Z" fill="black"/>
</svg>
